<mxfile host="Electron" modified="2025-02-16T20:52:53.659Z" agent="Mozilla/5.0 (Windows NT 10.0; Win64; x64) AppleWebKit/537.36 (KHTML, like Gecko) draw.io/24.5.3 Chrome/124.0.6367.207 Electron/30.0.6 Safari/537.36" etag="2Bk3lNcLKVdYCgxVLwPM" version="24.5.3" type="device">
  <diagram name="Seite-1" id="Kda-z7ed0vQDf38eL6Bx">
    <mxGraphModel dx="5427" dy="4976" grid="1" gridSize="10" guides="1" tooltips="1" connect="1" arrows="1" fold="1" page="1" pageScale="1" pageWidth="827" pageHeight="1169" math="0" shadow="0">
      <root>
        <mxCell id="0" />
        <mxCell id="1" parent="0" />
        <mxCell id="Hm3ft61ACo4Vs4W9NV3u-60" style="edgeStyle=orthogonalEdgeStyle;rounded=0;orthogonalLoop=1;jettySize=auto;html=1;entryX=1;entryY=0.5;entryDx=0;entryDy=0;endArrow=none;endFill=0;startArrow=open;startFill=0;" parent="1" source="Hm3ft61ACo4Vs4W9NV3u-1" target="Hm3ft61ACo4Vs4W9NV3u-38" edge="1">
          <mxGeometry relative="1" as="geometry" />
        </mxCell>
        <mxCell id="Hm3ft61ACo4Vs4W9NV3u-61" style="edgeStyle=orthogonalEdgeStyle;rounded=0;orthogonalLoop=1;jettySize=auto;html=1;entryX=1;entryY=0.5;entryDx=0;entryDy=0;endArrow=none;endFill=0;startArrow=open;startFill=0;" parent="1" source="Hm3ft61ACo4Vs4W9NV3u-1" target="Hm3ft61ACo4Vs4W9NV3u-43" edge="1">
          <mxGeometry relative="1" as="geometry" />
        </mxCell>
        <mxCell id="Baxdzq9md4CDjDvCUZd7-7" style="edgeStyle=orthogonalEdgeStyle;rounded=0;orthogonalLoop=1;jettySize=auto;html=1;entryX=1;entryY=0.5;entryDx=0;entryDy=0;endArrow=none;endFill=0;startArrow=open;startFill=0;" parent="1" source="Hm3ft61ACo4Vs4W9NV3u-1" target="Baxdzq9md4CDjDvCUZd7-4" edge="1">
          <mxGeometry relative="1" as="geometry">
            <Array as="points">
              <mxPoint x="-65" y="-30" />
              <mxPoint x="-260" y="-30" />
            </Array>
          </mxGeometry>
        </mxCell>
        <mxCell id="Hm3ft61ACo4Vs4W9NV3u-1" value="Smartphone" style="swimlane;fontStyle=0;childLayout=stackLayout;horizontal=1;startSize=26;fillColor=none;horizontalStack=0;resizeParent=1;resizeParentMax=0;resizeLast=0;collapsible=1;marginBottom=0;whiteSpace=wrap;html=1;" parent="1" vertex="1">
          <mxGeometry x="-180" y="18" width="200" height="462" as="geometry" />
        </mxCell>
        <mxCell id="Hm3ft61ACo4Vs4W9NV3u-2" value="- brand: Brand" style="text;strokeColor=none;fillColor=none;align=left;verticalAlign=top;spacingLeft=4;spacingRight=4;overflow=hidden;rotatable=0;points=[[0,0.5],[1,0.5]];portConstraint=eastwest;whiteSpace=wrap;html=1;" parent="Hm3ft61ACo4Vs4W9NV3u-1" vertex="1">
          <mxGeometry y="26" width="200" height="26" as="geometry" />
        </mxCell>
        <mxCell id="Hm3ft61ACo4Vs4W9NV3u-3" value="- model: String" style="text;strokeColor=none;fillColor=none;align=left;verticalAlign=top;spacingLeft=4;spacingRight=4;overflow=hidden;rotatable=0;points=[[0,0.5],[1,0.5]];portConstraint=eastwest;whiteSpace=wrap;html=1;" parent="Hm3ft61ACo4Vs4W9NV3u-1" vertex="1">
          <mxGeometry y="52" width="200" height="26" as="geometry" />
        </mxCell>
        <mxCell id="Hm3ft61ACo4Vs4W9NV3u-4" value="- unitPrice: double" style="text;strokeColor=none;fillColor=none;align=left;verticalAlign=top;spacingLeft=4;spacingRight=4;overflow=hidden;rotatable=0;points=[[0,0.5],[1,0.5]];portConstraint=eastwest;whiteSpace=wrap;html=1;" parent="Hm3ft61ACo4Vs4W9NV3u-1" vertex="1">
          <mxGeometry y="78" width="200" height="26" as="geometry" />
        </mxCell>
        <mxCell id="Hm3ft61ACo4Vs4W9NV3u-5" value="- ram: int" style="text;strokeColor=none;fillColor=none;align=left;verticalAlign=top;spacingLeft=4;spacingRight=4;overflow=hidden;rotatable=0;points=[[0,0.5],[1,0.5]];portConstraint=eastwest;whiteSpace=wrap;html=1;" parent="Hm3ft61ACo4Vs4W9NV3u-1" vertex="1">
          <mxGeometry y="104" width="200" height="26" as="geometry" />
        </mxCell>
        <mxCell id="Hm3ft61ACo4Vs4W9NV3u-6" value="- screenSize: float" style="text;strokeColor=none;fillColor=none;align=left;verticalAlign=top;spacingLeft=4;spacingRight=4;overflow=hidden;rotatable=0;points=[[0,0.5],[1,0.5]];portConstraint=eastwest;whiteSpace=wrap;html=1;" parent="Hm3ft61ACo4Vs4W9NV3u-1" vertex="1">
          <mxGeometry y="130" width="200" height="26" as="geometry" />
        </mxCell>
        <mxCell id="Hm3ft61ACo4Vs4W9NV3u-7" value="- os: Os" style="text;strokeColor=none;fillColor=none;align=left;verticalAlign=top;spacingLeft=4;spacingRight=4;overflow=hidden;rotatable=0;points=[[0,0.5],[1,0.5]];portConstraint=eastwest;whiteSpace=wrap;html=1;" parent="Hm3ft61ACo4Vs4W9NV3u-1" vertex="1">
          <mxGeometry y="156" width="200" height="26" as="geometry" />
        </mxCell>
        <mxCell id="Hm3ft61ACo4Vs4W9NV3u-8" value="- osVersion: String" style="text;strokeColor=none;fillColor=none;align=left;verticalAlign=top;spacingLeft=4;spacingRight=4;overflow=hidden;rotatable=0;points=[[0,0.5],[1,0.5]];portConstraint=eastwest;whiteSpace=wrap;html=1;" parent="Hm3ft61ACo4Vs4W9NV3u-1" vertex="1">
          <mxGeometry y="182" width="200" height="26" as="geometry" />
        </mxCell>
        <mxCell id="Hm3ft61ACo4Vs4W9NV3u-9" value="- screenResolutionWidth: int" style="text;strokeColor=none;fillColor=none;align=left;verticalAlign=top;spacingLeft=4;spacingRight=4;overflow=hidden;rotatable=0;points=[[0,0.5],[1,0.5]];portConstraint=eastwest;whiteSpace=wrap;html=1;" parent="Hm3ft61ACo4Vs4W9NV3u-1" vertex="1">
          <mxGeometry y="208" width="200" height="26" as="geometry" />
        </mxCell>
        <mxCell id="Hm3ft61ACo4Vs4W9NV3u-10" value="- screenResolutionHeight: int" style="text;strokeColor=none;fillColor=none;align=left;verticalAlign=top;spacingLeft=4;spacingRight=4;overflow=hidden;rotatable=0;points=[[0,0.5],[1,0.5]];portConstraint=eastwest;whiteSpace=wrap;html=1;" parent="Hm3ft61ACo4Vs4W9NV3u-1" vertex="1">
          <mxGeometry y="234" width="200" height="26" as="geometry" />
        </mxCell>
        <mxCell id="Hm3ft61ACo4Vs4W9NV3u-11" value="- processorCores: int" style="text;strokeColor=none;fillColor=none;align=left;verticalAlign=top;spacingLeft=4;spacingRight=4;overflow=hidden;rotatable=0;points=[[0,0.5],[1,0.5]];portConstraint=eastwest;whiteSpace=wrap;html=1;" parent="Hm3ft61ACo4Vs4W9NV3u-1" vertex="1">
          <mxGeometry y="260" width="200" height="26" as="geometry" />
        </mxCell>
        <mxCell id="Hm3ft61ACo4Vs4W9NV3u-12" value="- batteryCapacity: int" style="text;strokeColor=none;fillColor=none;align=left;verticalAlign=top;spacingLeft=4;spacingRight=4;overflow=hidden;rotatable=0;points=[[0,0.5],[1,0.5]];portConstraint=eastwest;whiteSpace=wrap;html=1;" parent="Hm3ft61ACo4Vs4W9NV3u-1" vertex="1">
          <mxGeometry y="286" width="200" height="26" as="geometry" />
        </mxCell>
        <mxCell id="Hm3ft61ACo4Vs4W9NV3u-13" value="- connectivity: ArrayList&amp;lt;Connectivity&amp;gt;" style="text;strokeColor=none;fillColor=none;align=left;verticalAlign=top;spacingLeft=4;spacingRight=4;overflow=hidden;rotatable=0;points=[[0,0.5],[1,0.5]];portConstraint=eastwest;whiteSpace=wrap;html=1;" parent="Hm3ft61ACo4Vs4W9NV3u-1" vertex="1">
          <mxGeometry y="312" width="200" height="38" as="geometry" />
        </mxCell>
        <mxCell id="Hm3ft61ACo4Vs4W9NV3u-14" value="- mobileStandard: MobileStandard" style="text;strokeColor=none;fillColor=none;align=left;verticalAlign=top;spacingLeft=4;spacingRight=4;overflow=hidden;rotatable=0;points=[[0,0.5],[1,0.5]];portConstraint=eastwest;whiteSpace=wrap;html=1;" parent="Hm3ft61ACo4Vs4W9NV3u-1" vertex="1">
          <mxGeometry y="350" width="200" height="26" as="geometry" />
        </mxCell>
        <mxCell id="Tq3Fw4G3Y3T93em3ZsLp-38" value="" style="line;strokeWidth=1;fillColor=none;align=left;verticalAlign=middle;spacingTop=-1;spacingLeft=3;spacingRight=3;rotatable=0;labelPosition=right;points=[];portConstraint=eastwest;strokeColor=inherit;" parent="Hm3ft61ACo4Vs4W9NV3u-1" vertex="1">
          <mxGeometry y="376" width="200" height="8" as="geometry" />
        </mxCell>
        <mxCell id="Tq3Fw4G3Y3T93em3ZsLp-34" value="+ constructor()" style="text;strokeColor=none;fillColor=none;align=left;verticalAlign=top;spacingLeft=4;spacingRight=4;overflow=hidden;rotatable=0;points=[[0,0.5],[1,0.5]];portConstraint=eastwest;whiteSpace=wrap;html=1;" parent="Hm3ft61ACo4Vs4W9NV3u-1" vertex="1">
          <mxGeometry y="384" width="200" height="26" as="geometry" />
        </mxCell>
        <mxCell id="Tq3Fw4G3Y3T93em3ZsLp-35" value="+ getter()" style="text;strokeColor=none;fillColor=none;align=left;verticalAlign=top;spacingLeft=4;spacingRight=4;overflow=hidden;rotatable=0;points=[[0,0.5],[1,0.5]];portConstraint=eastwest;whiteSpace=wrap;html=1;" parent="Hm3ft61ACo4Vs4W9NV3u-1" vertex="1">
          <mxGeometry y="410" width="200" height="26" as="geometry" />
        </mxCell>
        <mxCell id="Tq3Fw4G3Y3T93em3ZsLp-36" value="+ setter()" style="text;strokeColor=none;fillColor=none;align=left;verticalAlign=top;spacingLeft=4;spacingRight=4;overflow=hidden;rotatable=0;points=[[0,0.5],[1,0.5]];portConstraint=eastwest;whiteSpace=wrap;html=1;" parent="Hm3ft61ACo4Vs4W9NV3u-1" vertex="1">
          <mxGeometry y="436" width="200" height="26" as="geometry" />
        </mxCell>
        <mxCell id="Hm3ft61ACo4Vs4W9NV3u-58" style="rounded=0;orthogonalLoop=1;jettySize=auto;html=1;entryX=0;entryY=0.5;entryDx=0;entryDy=0;endArrow=none;endFill=0;startArrow=diamondThin;startFill=1;" parent="1" source="Hm3ft61ACo4Vs4W9NV3u-15" target="Hm3ft61ACo4Vs4W9NV3u-25" edge="1">
          <mxGeometry relative="1" as="geometry" />
        </mxCell>
        <mxCell id="Hm3ft61ACo4Vs4W9NV3u-15" value="Order" style="swimlane;fontStyle=0;childLayout=stackLayout;horizontal=1;startSize=26;fillColor=none;horizontalStack=0;resizeParent=1;resizeParentMax=0;resizeLast=0;collapsible=1;marginBottom=0;whiteSpace=wrap;html=1;" parent="1" vertex="1">
          <mxGeometry x="220" y="79" width="190" height="282" as="geometry" />
        </mxCell>
        <mxCell id="Hm3ft61ACo4Vs4W9NV3u-16" value="- orderNumber: byte[16]" style="text;strokeColor=none;fillColor=none;align=left;verticalAlign=top;spacingLeft=4;spacingRight=4;overflow=hidden;rotatable=0;points=[[0,0.5],[1,0.5]];portConstraint=eastwest;whiteSpace=wrap;html=1;" parent="Hm3ft61ACo4Vs4W9NV3u-15" vertex="1">
          <mxGeometry y="26" width="190" height="26" as="geometry" />
        </mxCell>
        <mxCell id="Hm3ft61ACo4Vs4W9NV3u-17" value="- orderDate: LocalDateTime" style="text;strokeColor=none;fillColor=none;align=left;verticalAlign=top;spacingLeft=4;spacingRight=4;overflow=hidden;rotatable=0;points=[[0,0.5],[1,0.5]];portConstraint=eastwest;whiteSpace=wrap;html=1;" parent="Hm3ft61ACo4Vs4W9NV3u-15" vertex="1">
          <mxGeometry y="52" width="190" height="26" as="geometry" />
        </mxCell>
        <mxCell id="OsrcIYrp8MjBmme8QH5t-1" value="- shippingAddress: Address" style="text;strokeColor=none;fillColor=none;align=left;verticalAlign=top;spacingLeft=4;spacingRight=4;overflow=hidden;rotatable=0;points=[[0,0.5],[1,0.5]];portConstraint=eastwest;whiteSpace=wrap;html=1;" parent="Hm3ft61ACo4Vs4W9NV3u-15" vertex="1">
          <mxGeometry y="78" width="190" height="26" as="geometry" />
        </mxCell>
        <mxCell id="Hm3ft61ACo4Vs4W9NV3u-18" value="- orderedByCustumer: Customer" style="text;strokeColor=none;fillColor=none;align=left;verticalAlign=top;spacingLeft=4;spacingRight=4;overflow=hidden;rotatable=0;points=[[0,0.5],[1,0.5]];portConstraint=eastwest;whiteSpace=wrap;html=1;" parent="Hm3ft61ACo4Vs4W9NV3u-15" vertex="1">
          <mxGeometry y="104" width="190" height="26" as="geometry" />
        </mxCell>
        <mxCell id="Hm3ft61ACo4Vs4W9NV3u-19" value="- orderPositions: ArrayList&amp;lt;OrderPosition&amp;gt;" style="text;strokeColor=none;fillColor=none;align=left;verticalAlign=top;spacingLeft=4;spacingRight=4;overflow=hidden;rotatable=0;points=[[0,0.5],[1,0.5]];portConstraint=eastwest;whiteSpace=wrap;html=1;" parent="Hm3ft61ACo4Vs4W9NV3u-15" vertex="1">
          <mxGeometry y="130" width="190" height="40" as="geometry" />
        </mxCell>
        <mxCell id="Hm3ft61ACo4Vs4W9NV3u-20" value="- totalPrice: double" style="text;strokeColor=none;fillColor=none;align=left;verticalAlign=top;spacingLeft=4;spacingRight=4;overflow=hidden;rotatable=0;points=[[0,0.5],[1,0.5]];portConstraint=eastwest;whiteSpace=wrap;html=1;" parent="Hm3ft61ACo4Vs4W9NV3u-15" vertex="1">
          <mxGeometry y="170" width="190" height="26" as="geometry" />
        </mxCell>
        <mxCell id="Tq3Fw4G3Y3T93em3ZsLp-33" value="" style="line;strokeWidth=1;fillColor=none;align=left;verticalAlign=middle;spacingTop=-1;spacingLeft=3;spacingRight=3;rotatable=0;labelPosition=right;points=[];portConstraint=eastwest;strokeColor=inherit;" parent="Hm3ft61ACo4Vs4W9NV3u-15" vertex="1">
          <mxGeometry y="196" width="190" height="8" as="geometry" />
        </mxCell>
        <mxCell id="Tq3Fw4G3Y3T93em3ZsLp-30" value="+ constructor()" style="text;strokeColor=none;fillColor=none;align=left;verticalAlign=top;spacingLeft=4;spacingRight=4;overflow=hidden;rotatable=0;points=[[0,0.5],[1,0.5]];portConstraint=eastwest;whiteSpace=wrap;html=1;" parent="Hm3ft61ACo4Vs4W9NV3u-15" vertex="1">
          <mxGeometry y="204" width="190" height="26" as="geometry" />
        </mxCell>
        <mxCell id="Tq3Fw4G3Y3T93em3ZsLp-31" value="+ getter()" style="text;strokeColor=none;fillColor=none;align=left;verticalAlign=top;spacingLeft=4;spacingRight=4;overflow=hidden;rotatable=0;points=[[0,0.5],[1,0.5]];portConstraint=eastwest;whiteSpace=wrap;html=1;" parent="Hm3ft61ACo4Vs4W9NV3u-15" vertex="1">
          <mxGeometry y="230" width="190" height="26" as="geometry" />
        </mxCell>
        <mxCell id="Tq3Fw4G3Y3T93em3ZsLp-32" value="+ setter()" style="text;strokeColor=none;fillColor=none;align=left;verticalAlign=top;spacingLeft=4;spacingRight=4;overflow=hidden;rotatable=0;points=[[0,0.5],[1,0.5]];portConstraint=eastwest;whiteSpace=wrap;html=1;" parent="Hm3ft61ACo4Vs4W9NV3u-15" vertex="1">
          <mxGeometry y="256" width="190" height="26" as="geometry" />
        </mxCell>
        <mxCell id="Hm3ft61ACo4Vs4W9NV3u-21" value="Customer" style="swimlane;fontStyle=0;childLayout=stackLayout;horizontal=1;startSize=26;fillColor=none;horizontalStack=0;resizeParent=1;resizeParentMax=0;resizeLast=0;collapsible=1;marginBottom=0;whiteSpace=wrap;html=1;" parent="1" vertex="1">
          <mxGeometry x="470" y="50" width="200" height="460" as="geometry" />
        </mxCell>
        <mxCell id="Hm3ft61ACo4Vs4W9NV3u-22" value="- salutation: String" style="text;strokeColor=none;fillColor=none;align=left;verticalAlign=top;spacingLeft=4;spacingRight=4;overflow=hidden;rotatable=0;points=[[0,0.5],[1,0.5]];portConstraint=eastwest;whiteSpace=wrap;html=1;" parent="Hm3ft61ACo4Vs4W9NV3u-21" vertex="1">
          <mxGeometry y="26" width="200" height="26" as="geometry" />
        </mxCell>
        <mxCell id="Hm3ft61ACo4Vs4W9NV3u-23" value="- lastName: String" style="text;strokeColor=none;fillColor=none;align=left;verticalAlign=top;spacingLeft=4;spacingRight=4;overflow=hidden;rotatable=0;points=[[0,0.5],[1,0.5]];portConstraint=eastwest;whiteSpace=wrap;html=1;" parent="Hm3ft61ACo4Vs4W9NV3u-21" vertex="1">
          <mxGeometry y="52" width="200" height="26" as="geometry" />
        </mxCell>
        <mxCell id="Hm3ft61ACo4Vs4W9NV3u-24" value="- firstName: String" style="text;strokeColor=none;fillColor=none;align=left;verticalAlign=top;spacingLeft=4;spacingRight=4;overflow=hidden;rotatable=0;points=[[0,0.5],[1,0.5]];portConstraint=eastwest;whiteSpace=wrap;html=1;" parent="Hm3ft61ACo4Vs4W9NV3u-21" vertex="1">
          <mxGeometry y="78" width="200" height="26" as="geometry" />
        </mxCell>
        <mxCell id="Hm3ft61ACo4Vs4W9NV3u-25" value="- addresses: ArrayList&amp;lt;Address&amp;gt;" style="text;strokeColor=none;fillColor=none;align=left;verticalAlign=top;spacingLeft=4;spacingRight=4;overflow=hidden;rotatable=0;points=[[0,0.5],[1,0.5]];portConstraint=eastwest;whiteSpace=wrap;html=1;" parent="Hm3ft61ACo4Vs4W9NV3u-21" vertex="1">
          <mxGeometry y="104" width="200" height="26" as="geometry" />
        </mxCell>
        <mxCell id="Hm3ft61ACo4Vs4W9NV3u-63" value="- zipCode: String" style="text;strokeColor=none;fillColor=none;align=left;verticalAlign=top;spacingLeft=4;spacingRight=4;overflow=hidden;rotatable=0;points=[[0,0.5],[1,0.5]];portConstraint=eastwest;whiteSpace=wrap;html=1;" parent="Hm3ft61ACo4Vs4W9NV3u-21" vertex="1">
          <mxGeometry y="130" width="200" height="26" as="geometry" />
        </mxCell>
        <mxCell id="Hm3ft61ACo4Vs4W9NV3u-64" value="- city: String" style="text;strokeColor=none;fillColor=none;align=left;verticalAlign=top;spacingLeft=4;spacingRight=4;overflow=hidden;rotatable=0;points=[[0,0.5],[1,0.5]];portConstraint=eastwest;whiteSpace=wrap;html=1;" parent="Hm3ft61ACo4Vs4W9NV3u-21" vertex="1">
          <mxGeometry y="156" width="200" height="26" as="geometry" />
        </mxCell>
        <mxCell id="Hm3ft61ACo4Vs4W9NV3u-26" value="- phoneNumberPrivate: String" style="text;strokeColor=none;fillColor=none;align=left;verticalAlign=top;spacingLeft=4;spacingRight=4;overflow=hidden;rotatable=0;points=[[0,0.5],[1,0.5]];portConstraint=eastwest;whiteSpace=wrap;html=1;" parent="Hm3ft61ACo4Vs4W9NV3u-21" vertex="1">
          <mxGeometry y="182" width="200" height="30" as="geometry" />
        </mxCell>
        <mxCell id="Hm3ft61ACo4Vs4W9NV3u-27" value="- phoneNumberMobile: String" style="text;strokeColor=none;fillColor=none;align=left;verticalAlign=top;spacingLeft=4;spacingRight=4;overflow=hidden;rotatable=0;points=[[0,0.5],[1,0.5]];portConstraint=eastwest;whiteSpace=wrap;html=1;" parent="Hm3ft61ACo4Vs4W9NV3u-21" vertex="1">
          <mxGeometry y="212" width="200" height="30" as="geometry" />
        </mxCell>
        <mxCell id="Hm3ft61ACo4Vs4W9NV3u-28" value="- email: String" style="text;strokeColor=none;fillColor=none;align=left;verticalAlign=top;spacingLeft=4;spacingRight=4;overflow=hidden;rotatable=0;points=[[0,0.5],[1,0.5]];portConstraint=eastwest;whiteSpace=wrap;html=1;" parent="Hm3ft61ACo4Vs4W9NV3u-21" vertex="1">
          <mxGeometry y="242" width="200" height="30" as="geometry" />
        </mxCell>
        <mxCell id="Hm3ft61ACo4Vs4W9NV3u-29" value="- dateOfBrith: LocalDate" style="text;strokeColor=none;fillColor=none;align=left;verticalAlign=top;spacingLeft=4;spacingRight=4;overflow=hidden;rotatable=0;points=[[0,0.5],[1,0.5]];portConstraint=eastwest;whiteSpace=wrap;html=1;" parent="Hm3ft61ACo4Vs4W9NV3u-21" vertex="1">
          <mxGeometry y="272" width="200" height="30" as="geometry" />
        </mxCell>
        <mxCell id="Hm3ft61ACo4Vs4W9NV3u-30" value="- username: String" style="text;strokeColor=none;fillColor=none;align=left;verticalAlign=top;spacingLeft=4;spacingRight=4;overflow=hidden;rotatable=0;points=[[0,0.5],[1,0.5]];portConstraint=eastwest;whiteSpace=wrap;html=1;" parent="Hm3ft61ACo4Vs4W9NV3u-21" vertex="1">
          <mxGeometry y="302" width="200" height="30" as="geometry" />
        </mxCell>
        <mxCell id="Hm3ft61ACo4Vs4W9NV3u-31" value="- password: byte[32]" style="text;strokeColor=none;fillColor=none;align=left;verticalAlign=top;spacingLeft=4;spacingRight=4;overflow=hidden;rotatable=0;points=[[0,0.5],[1,0.5]];portConstraint=eastwest;whiteSpace=wrap;html=1;" parent="Hm3ft61ACo4Vs4W9NV3u-21" vertex="1">
          <mxGeometry y="332" width="200" height="30" as="geometry" />
        </mxCell>
        <mxCell id="Tq3Fw4G3Y3T93em3ZsLp-23" value="" style="line;strokeWidth=1;fillColor=none;align=left;verticalAlign=middle;spacingTop=-1;spacingLeft=3;spacingRight=3;rotatable=0;labelPosition=right;points=[];portConstraint=eastwest;strokeColor=inherit;" parent="Hm3ft61ACo4Vs4W9NV3u-21" vertex="1">
          <mxGeometry y="362" width="200" height="8" as="geometry" />
        </mxCell>
        <mxCell id="Tq3Fw4G3Y3T93em3ZsLp-22" value="+ constructor()" style="text;strokeColor=none;fillColor=none;align=left;verticalAlign=top;spacingLeft=4;spacingRight=4;overflow=hidden;rotatable=0;points=[[0,0.5],[1,0.5]];portConstraint=eastwest;whiteSpace=wrap;html=1;" parent="Hm3ft61ACo4Vs4W9NV3u-21" vertex="1">
          <mxGeometry y="370" width="200" height="30" as="geometry" />
        </mxCell>
        <mxCell id="Tq3Fw4G3Y3T93em3ZsLp-24" value="+ getter()" style="text;strokeColor=none;fillColor=none;align=left;verticalAlign=top;spacingLeft=4;spacingRight=4;overflow=hidden;rotatable=0;points=[[0,0.5],[1,0.5]];portConstraint=eastwest;whiteSpace=wrap;html=1;" parent="Hm3ft61ACo4Vs4W9NV3u-21" vertex="1">
          <mxGeometry y="400" width="200" height="30" as="geometry" />
        </mxCell>
        <mxCell id="Tq3Fw4G3Y3T93em3ZsLp-25" value="+ setter()" style="text;strokeColor=none;fillColor=none;align=left;verticalAlign=top;spacingLeft=4;spacingRight=4;overflow=hidden;rotatable=0;points=[[0,0.5],[1,0.5]];portConstraint=eastwest;whiteSpace=wrap;html=1;" parent="Hm3ft61ACo4Vs4W9NV3u-21" vertex="1">
          <mxGeometry y="430" width="200" height="30" as="geometry" />
        </mxCell>
        <mxCell id="Hm3ft61ACo4Vs4W9NV3u-36" value="«&lt;i&gt;enum&lt;/i&gt;»&lt;br&gt;&lt;b&gt;Os&lt;/b&gt;" style="swimlane;fontStyle=0;childLayout=stackLayout;horizontal=1;startSize=26;fillColor=none;horizontalStack=0;resizeParent=1;resizeParentMax=0;resizeLast=0;collapsible=1;marginBottom=0;whiteSpace=wrap;html=1;" parent="1" vertex="1">
          <mxGeometry x="-400" y="150" width="140" height="78" as="geometry" />
        </mxCell>
        <mxCell id="Hm3ft61ACo4Vs4W9NV3u-38" value="IOS" style="text;strokeColor=none;fillColor=none;align=left;verticalAlign=top;spacingLeft=4;spacingRight=4;overflow=hidden;rotatable=0;points=[[0,0.5],[1,0.5]];portConstraint=eastwest;whiteSpace=wrap;html=1;" parent="Hm3ft61ACo4Vs4W9NV3u-36" vertex="1">
          <mxGeometry y="26" width="140" height="26" as="geometry" />
        </mxCell>
        <mxCell id="Hm3ft61ACo4Vs4W9NV3u-39" value="ANDROID" style="text;strokeColor=none;fillColor=none;align=left;verticalAlign=top;spacingLeft=4;spacingRight=4;overflow=hidden;rotatable=0;points=[[0,0.5],[1,0.5]];portConstraint=eastwest;whiteSpace=wrap;html=1;" parent="Hm3ft61ACo4Vs4W9NV3u-36" vertex="1">
          <mxGeometry y="52" width="140" height="26" as="geometry" />
        </mxCell>
        <mxCell id="Hm3ft61ACo4Vs4W9NV3u-41" value="«&lt;i&gt;enum&lt;/i&gt;»&lt;br&gt;&lt;b&gt;Connectivity&lt;/b&gt;" style="swimlane;fontStyle=0;childLayout=stackLayout;horizontal=1;startSize=26;fillColor=none;horizontalStack=0;resizeParent=1;resizeParentMax=0;resizeLast=0;collapsible=1;marginBottom=0;whiteSpace=wrap;html=1;" parent="1" vertex="1">
          <mxGeometry x="-400" y="264" width="140" height="182" as="geometry" />
        </mxCell>
        <mxCell id="Hm3ft61ACo4Vs4W9NV3u-42" value="BLUETOOTH" style="text;strokeColor=none;fillColor=none;align=left;verticalAlign=top;spacingLeft=4;spacingRight=4;overflow=hidden;rotatable=0;points=[[0,0.5],[1,0.5]];portConstraint=eastwest;whiteSpace=wrap;html=1;" parent="Hm3ft61ACo4Vs4W9NV3u-41" vertex="1">
          <mxGeometry y="26" width="140" height="26" as="geometry" />
        </mxCell>
        <mxCell id="Hm3ft61ACo4Vs4W9NV3u-43" value="NFC" style="text;strokeColor=none;fillColor=none;align=left;verticalAlign=top;spacingLeft=4;spacingRight=4;overflow=hidden;rotatable=0;points=[[0,0.5],[1,0.5]];portConstraint=eastwest;whiteSpace=wrap;html=1;" parent="Hm3ft61ACo4Vs4W9NV3u-41" vertex="1">
          <mxGeometry y="52" width="140" height="26" as="geometry" />
        </mxCell>
        <mxCell id="Hm3ft61ACo4Vs4W9NV3u-44" value="USB_C" style="text;strokeColor=none;fillColor=none;align=left;verticalAlign=top;spacingLeft=4;spacingRight=4;overflow=hidden;rotatable=0;points=[[0,0.5],[1,0.5]];portConstraint=eastwest;whiteSpace=wrap;html=1;" parent="Hm3ft61ACo4Vs4W9NV3u-41" vertex="1">
          <mxGeometry y="78" width="140" height="26" as="geometry" />
        </mxCell>
        <mxCell id="Baxdzq9md4CDjDvCUZd7-11" value="MICRO_USB_B" style="text;strokeColor=none;fillColor=none;align=left;verticalAlign=top;spacingLeft=4;spacingRight=4;overflow=hidden;rotatable=0;points=[[0,0.5],[1,0.5]];portConstraint=eastwest;whiteSpace=wrap;html=1;" parent="Hm3ft61ACo4Vs4W9NV3u-41" vertex="1">
          <mxGeometry y="104" width="140" height="26" as="geometry" />
        </mxCell>
        <mxCell id="Hm3ft61ACo4Vs4W9NV3u-45" value="WIFI_HOTSPOT" style="text;strokeColor=none;fillColor=none;align=left;verticalAlign=top;spacingLeft=4;spacingRight=4;overflow=hidden;rotatable=0;points=[[0,0.5],[1,0.5]];portConstraint=eastwest;whiteSpace=wrap;html=1;" parent="Hm3ft61ACo4Vs4W9NV3u-41" vertex="1">
          <mxGeometry y="130" width="140" height="26" as="geometry" />
        </mxCell>
        <mxCell id="Hm3ft61ACo4Vs4W9NV3u-46" value="WLAN" style="text;strokeColor=none;fillColor=none;align=left;verticalAlign=top;spacingLeft=4;spacingRight=4;overflow=hidden;rotatable=0;points=[[0,0.5],[1,0.5]];portConstraint=eastwest;whiteSpace=wrap;html=1;" parent="Hm3ft61ACo4Vs4W9NV3u-41" vertex="1">
          <mxGeometry y="156" width="140" height="26" as="geometry" />
        </mxCell>
        <mxCell id="Hm3ft61ACo4Vs4W9NV3u-47" value="«&lt;i&gt;enum&lt;/i&gt;»&lt;br&gt;&lt;b&gt;MobileStandard&lt;/b&gt;" style="swimlane;fontStyle=0;childLayout=stackLayout;horizontal=1;startSize=26;fillColor=none;horizontalStack=0;resizeParent=1;resizeParentMax=0;resizeLast=0;collapsible=1;marginBottom=0;whiteSpace=wrap;html=1;" parent="1" vertex="1">
          <mxGeometry x="-400" y="480" width="140" height="260" as="geometry" />
        </mxCell>
        <mxCell id="Hm3ft61ACo4Vs4W9NV3u-49" value="2G" style="text;strokeColor=none;fillColor=none;align=left;verticalAlign=top;spacingLeft=4;spacingRight=4;overflow=hidden;rotatable=0;points=[[0,0.5],[1,0.5]];portConstraint=eastwest;whiteSpace=wrap;html=1;" parent="Hm3ft61ACo4Vs4W9NV3u-47" vertex="1">
          <mxGeometry y="26" width="140" height="26" as="geometry" />
        </mxCell>
        <mxCell id="Hm3ft61ACo4Vs4W9NV3u-50" value="2.5G" style="text;strokeColor=none;fillColor=none;align=left;verticalAlign=top;spacingLeft=4;spacingRight=4;overflow=hidden;rotatable=0;points=[[0,0.5],[1,0.5]];portConstraint=eastwest;whiteSpace=wrap;html=1;" parent="Hm3ft61ACo4Vs4W9NV3u-47" vertex="1">
          <mxGeometry y="52" width="140" height="26" as="geometry" />
        </mxCell>
        <mxCell id="Hm3ft61ACo4Vs4W9NV3u-51" value="2.75G" style="text;strokeColor=none;fillColor=none;align=left;verticalAlign=top;spacingLeft=4;spacingRight=4;overflow=hidden;rotatable=0;points=[[0,0.5],[1,0.5]];portConstraint=eastwest;whiteSpace=wrap;html=1;" parent="Hm3ft61ACo4Vs4W9NV3u-47" vertex="1">
          <mxGeometry y="78" width="140" height="26" as="geometry" />
        </mxCell>
        <mxCell id="Hm3ft61ACo4Vs4W9NV3u-52" value="3G" style="text;strokeColor=none;fillColor=none;align=left;verticalAlign=top;spacingLeft=4;spacingRight=4;overflow=hidden;rotatable=0;points=[[0,0.5],[1,0.5]];portConstraint=eastwest;whiteSpace=wrap;html=1;" parent="Hm3ft61ACo4Vs4W9NV3u-47" vertex="1">
          <mxGeometry y="104" width="140" height="26" as="geometry" />
        </mxCell>
        <mxCell id="Hm3ft61ACo4Vs4W9NV3u-53" value="3.5G" style="text;strokeColor=none;fillColor=none;align=left;verticalAlign=top;spacingLeft=4;spacingRight=4;overflow=hidden;rotatable=0;points=[[0,0.5],[1,0.5]];portConstraint=eastwest;whiteSpace=wrap;html=1;" parent="Hm3ft61ACo4Vs4W9NV3u-47" vertex="1">
          <mxGeometry y="130" width="140" height="26" as="geometry" />
        </mxCell>
        <mxCell id="Hm3ft61ACo4Vs4W9NV3u-54" value="3.9G" style="text;strokeColor=none;fillColor=none;align=left;verticalAlign=top;spacingLeft=4;spacingRight=4;overflow=hidden;rotatable=0;points=[[0,0.5],[1,0.5]];portConstraint=eastwest;whiteSpace=wrap;html=1;" parent="Hm3ft61ACo4Vs4W9NV3u-47" vertex="1">
          <mxGeometry y="156" width="140" height="26" as="geometry" />
        </mxCell>
        <mxCell id="Hm3ft61ACo4Vs4W9NV3u-55" value="4G" style="text;strokeColor=none;fillColor=none;align=left;verticalAlign=top;spacingLeft=4;spacingRight=4;overflow=hidden;rotatable=0;points=[[0,0.5],[1,0.5]];portConstraint=eastwest;whiteSpace=wrap;html=1;" parent="Hm3ft61ACo4Vs4W9NV3u-47" vertex="1">
          <mxGeometry y="182" width="140" height="26" as="geometry" />
        </mxCell>
        <mxCell id="Hm3ft61ACo4Vs4W9NV3u-56" value="4.5G" style="text;strokeColor=none;fillColor=none;align=left;verticalAlign=top;spacingLeft=4;spacingRight=4;overflow=hidden;rotatable=0;points=[[0,0.5],[1,0.5]];portConstraint=eastwest;whiteSpace=wrap;html=1;" parent="Hm3ft61ACo4Vs4W9NV3u-47" vertex="1">
          <mxGeometry y="208" width="140" height="26" as="geometry" />
        </mxCell>
        <mxCell id="Hm3ft61ACo4Vs4W9NV3u-57" value="5G" style="text;strokeColor=none;fillColor=none;align=left;verticalAlign=top;spacingLeft=4;spacingRight=4;overflow=hidden;rotatable=0;points=[[0,0.5],[1,0.5]];portConstraint=eastwest;whiteSpace=wrap;html=1;" parent="Hm3ft61ACo4Vs4W9NV3u-47" vertex="1">
          <mxGeometry y="234" width="140" height="26" as="geometry" />
        </mxCell>
        <mxCell id="Baxdzq9md4CDjDvCUZd7-1" value="«&lt;i&gt;enum&lt;/i&gt;»&lt;br&gt;&lt;b&gt;Brand&lt;/b&gt;" style="swimlane;fontStyle=0;childLayout=stackLayout;horizontal=1;startSize=26;fillColor=none;horizontalStack=0;resizeParent=1;resizeParentMax=0;resizeLast=0;collapsible=1;marginBottom=0;whiteSpace=wrap;html=1;" parent="1" vertex="1">
          <mxGeometry x="-400" y="-120" width="140" height="234" as="geometry" />
        </mxCell>
        <mxCell id="Baxdzq9md4CDjDvCUZd7-2" value="APPLE" style="text;strokeColor=none;fillColor=none;align=left;verticalAlign=top;spacingLeft=4;spacingRight=4;overflow=hidden;rotatable=0;points=[[0,0.5],[1,0.5]];portConstraint=eastwest;whiteSpace=wrap;html=1;" parent="Baxdzq9md4CDjDvCUZd7-1" vertex="1">
          <mxGeometry y="26" width="140" height="26" as="geometry" />
        </mxCell>
        <mxCell id="Baxdzq9md4CDjDvCUZd7-3" value="SAMSUNG" style="text;strokeColor=none;fillColor=none;align=left;verticalAlign=top;spacingLeft=4;spacingRight=4;overflow=hidden;rotatable=0;points=[[0,0.5],[1,0.5]];portConstraint=eastwest;whiteSpace=wrap;html=1;" parent="Baxdzq9md4CDjDvCUZd7-1" vertex="1">
          <mxGeometry y="52" width="140" height="26" as="geometry" />
        </mxCell>
        <mxCell id="Baxdzq9md4CDjDvCUZd7-4" value="HUAWEI" style="text;strokeColor=none;fillColor=none;align=left;verticalAlign=top;spacingLeft=4;spacingRight=4;overflow=hidden;rotatable=0;points=[[0,0.5],[1,0.5]];portConstraint=eastwest;whiteSpace=wrap;html=1;" parent="Baxdzq9md4CDjDvCUZd7-1" vertex="1">
          <mxGeometry y="78" width="140" height="26" as="geometry" />
        </mxCell>
        <mxCell id="Baxdzq9md4CDjDvCUZd7-5" value="ASUS" style="text;strokeColor=none;fillColor=none;align=left;verticalAlign=top;spacingLeft=4;spacingRight=4;overflow=hidden;rotatable=0;points=[[0,0.5],[1,0.5]];portConstraint=eastwest;whiteSpace=wrap;html=1;" parent="Baxdzq9md4CDjDvCUZd7-1" vertex="1">
          <mxGeometry y="104" width="140" height="26" as="geometry" />
        </mxCell>
        <mxCell id="Baxdzq9md4CDjDvCUZd7-6" value="XIAOMI" style="text;strokeColor=none;fillColor=none;align=left;verticalAlign=top;spacingLeft=4;spacingRight=4;overflow=hidden;rotatable=0;points=[[0,0.5],[1,0.5]];portConstraint=eastwest;whiteSpace=wrap;html=1;" parent="Baxdzq9md4CDjDvCUZd7-1" vertex="1">
          <mxGeometry y="130" width="140" height="26" as="geometry" />
        </mxCell>
        <mxCell id="Baxdzq9md4CDjDvCUZd7-8" value="NOTHING" style="text;strokeColor=none;fillColor=none;align=left;verticalAlign=top;spacingLeft=4;spacingRight=4;overflow=hidden;rotatable=0;points=[[0,0.5],[1,0.5]];portConstraint=eastwest;whiteSpace=wrap;html=1;" parent="Baxdzq9md4CDjDvCUZd7-1" vertex="1">
          <mxGeometry y="156" width="140" height="26" as="geometry" />
        </mxCell>
        <mxCell id="Baxdzq9md4CDjDvCUZd7-9" value="GOOGLE" style="text;strokeColor=none;fillColor=none;align=left;verticalAlign=top;spacingLeft=4;spacingRight=4;overflow=hidden;rotatable=0;points=[[0,0.5],[1,0.5]];portConstraint=eastwest;whiteSpace=wrap;html=1;" parent="Baxdzq9md4CDjDvCUZd7-1" vertex="1">
          <mxGeometry y="182" width="140" height="26" as="geometry" />
        </mxCell>
        <mxCell id="Baxdzq9md4CDjDvCUZd7-10" value="MICROSOFT" style="text;strokeColor=none;fillColor=none;align=left;verticalAlign=top;spacingLeft=4;spacingRight=4;overflow=hidden;rotatable=0;points=[[0,0.5],[1,0.5]];portConstraint=eastwest;whiteSpace=wrap;html=1;" parent="Baxdzq9md4CDjDvCUZd7-1" vertex="1">
          <mxGeometry y="208" width="140" height="26" as="geometry" />
        </mxCell>
        <mxCell id="OsrcIYrp8MjBmme8QH5t-4" style="edgeStyle=orthogonalEdgeStyle;rounded=0;orthogonalLoop=1;jettySize=auto;html=1;entryX=0.411;entryY=1;entryDx=0;entryDy=0;entryPerimeter=0;endArrow=diamondThin;endFill=0;" parent="1" source="Tq3Fw4G3Y3T93em3ZsLp-1" target="Tq3Fw4G3Y3T93em3ZsLp-32" edge="1">
          <mxGeometry relative="1" as="geometry">
            <mxPoint x="300" y="370" as="targetPoint" />
            <Array as="points">
              <mxPoint x="298" y="610" />
            </Array>
          </mxGeometry>
        </mxCell>
        <mxCell id="BB3HQISlAdByl-IEMui2-3" style="rounded=0;orthogonalLoop=1;jettySize=auto;html=1;entryX=1;entryY=0.5;entryDx=0;entryDy=0;endArrow=diamondThin;endFill=0;" parent="1" source="Tq3Fw4G3Y3T93em3ZsLp-1" target="Hm3ft61ACo4Vs4W9NV3u-29" edge="1">
          <mxGeometry relative="1" as="geometry" />
        </mxCell>
        <mxCell id="Tq3Fw4G3Y3T93em3ZsLp-1" value="Address" style="swimlane;fontStyle=0;childLayout=stackLayout;horizontal=1;startSize=26;fillColor=none;horizontalStack=0;resizeParent=1;resizeParentMax=0;resizeLast=0;collapsible=1;marginBottom=0;whiteSpace=wrap;html=1;" parent="1" vertex="1">
          <mxGeometry x="840" y="110" width="140" height="182" as="geometry" />
        </mxCell>
        <mxCell id="Tq3Fw4G3Y3T93em3ZsLp-2" value="- street: String" style="text;strokeColor=none;fillColor=none;align=left;verticalAlign=top;spacingLeft=4;spacingRight=4;overflow=hidden;rotatable=0;points=[[0,0.5],[1,0.5]];portConstraint=eastwest;whiteSpace=wrap;html=1;" parent="Tq3Fw4G3Y3T93em3ZsLp-1" vertex="1">
          <mxGeometry y="26" width="140" height="26" as="geometry" />
        </mxCell>
        <mxCell id="Tq3Fw4G3Y3T93em3ZsLp-3" value="- zipCode: String" style="text;strokeColor=none;fillColor=none;align=left;verticalAlign=top;spacingLeft=4;spacingRight=4;overflow=hidden;rotatable=0;points=[[0,0.5],[1,0.5]];portConstraint=eastwest;whiteSpace=wrap;html=1;" parent="Tq3Fw4G3Y3T93em3ZsLp-1" vertex="1">
          <mxGeometry y="52" width="140" height="26" as="geometry" />
        </mxCell>
        <mxCell id="Tq3Fw4G3Y3T93em3ZsLp-4" value="- city: String" style="text;strokeColor=none;fillColor=none;align=left;verticalAlign=top;spacingLeft=4;spacingRight=4;overflow=hidden;rotatable=0;points=[[0,0.5],[1,0.5]];portConstraint=eastwest;whiteSpace=wrap;html=1;" parent="Tq3Fw4G3Y3T93em3ZsLp-1" vertex="1">
          <mxGeometry y="78" width="140" height="26" as="geometry" />
        </mxCell>
        <mxCell id="Lad4h3_rMvGk7V-CIFqu-6" value="+ constructor()" style="text;strokeColor=none;fillColor=none;align=left;verticalAlign=top;spacingLeft=4;spacingRight=4;overflow=hidden;rotatable=0;points=[[0,0.5],[1,0.5]];portConstraint=eastwest;whiteSpace=wrap;html=1;" parent="Tq3Fw4G3Y3T93em3ZsLp-1" vertex="1">
          <mxGeometry y="104" width="140" height="26" as="geometry" />
        </mxCell>
        <mxCell id="Lad4h3_rMvGk7V-CIFqu-7" value="+ getter()" style="text;strokeColor=none;fillColor=none;align=left;verticalAlign=top;spacingLeft=4;spacingRight=4;overflow=hidden;rotatable=0;points=[[0,0.5],[1,0.5]];portConstraint=eastwest;whiteSpace=wrap;html=1;" parent="Tq3Fw4G3Y3T93em3ZsLp-1" vertex="1">
          <mxGeometry y="130" width="140" height="26" as="geometry" />
        </mxCell>
        <mxCell id="Lad4h3_rMvGk7V-CIFqu-8" value="+ setter()" style="text;strokeColor=none;fillColor=none;align=left;verticalAlign=top;spacingLeft=4;spacingRight=4;overflow=hidden;rotatable=0;points=[[0,0.5],[1,0.5]];portConstraint=eastwest;whiteSpace=wrap;html=1;" parent="Tq3Fw4G3Y3T93em3ZsLp-1" vertex="1">
          <mxGeometry y="156" width="140" height="26" as="geometry" />
        </mxCell>
        <mxCell id="Tq3Fw4G3Y3T93em3ZsLp-12" value="CustomerRepository" style="swimlane;fontStyle=1;align=center;verticalAlign=top;childLayout=stackLayout;horizontal=1;startSize=26;horizontalStack=0;resizeParent=1;resizeParentMax=0;resizeLast=0;collapsible=1;marginBottom=0;whiteSpace=wrap;html=1;" parent="1" vertex="1">
          <mxGeometry x="340" y="-370" width="260" height="164" as="geometry" />
        </mxCell>
        <mxCell id="Tq3Fw4G3Y3T93em3ZsLp-14" value="" style="line;strokeWidth=1;fillColor=none;align=left;verticalAlign=middle;spacingTop=-1;spacingLeft=3;spacingRight=3;rotatable=0;labelPosition=right;points=[];portConstraint=eastwest;strokeColor=inherit;" parent="Tq3Fw4G3Y3T93em3ZsLp-12" vertex="1">
          <mxGeometry y="26" width="260" height="8" as="geometry" />
        </mxCell>
        <mxCell id="Tq3Fw4G3Y3T93em3ZsLp-39" value="+ constructor" style="text;strokeColor=none;fillColor=none;align=left;verticalAlign=top;spacingLeft=4;spacingRight=4;overflow=hidden;rotatable=0;points=[[0,0.5],[1,0.5]];portConstraint=eastwest;whiteSpace=wrap;html=1;" parent="Tq3Fw4G3Y3T93em3ZsLp-12" vertex="1">
          <mxGeometry y="34" width="260" height="26" as="geometry" />
        </mxCell>
        <mxCell id="Tq3Fw4G3Y3T93em3ZsLp-18" value="+ add(Customer customer): void" style="text;strokeColor=none;fillColor=none;align=left;verticalAlign=top;spacingLeft=4;spacingRight=4;overflow=hidden;rotatable=0;points=[[0,0.5],[1,0.5]];portConstraint=eastwest;whiteSpace=wrap;html=1;" parent="Tq3Fw4G3Y3T93em3ZsLp-12" vertex="1">
          <mxGeometry y="60" width="260" height="26" as="geometry" />
        </mxCell>
        <mxCell id="Tq3Fw4G3Y3T93em3ZsLp-15" value="+ load(): ArrayList&amp;lt;Customer&amp;gt;" style="text;strokeColor=none;fillColor=none;align=left;verticalAlign=top;spacingLeft=4;spacingRight=4;overflow=hidden;rotatable=0;points=[[0,0.5],[1,0.5]];portConstraint=eastwest;whiteSpace=wrap;html=1;" parent="Tq3Fw4G3Y3T93em3ZsLp-12" vertex="1">
          <mxGeometry y="86" width="260" height="26" as="geometry" />
        </mxCell>
        <mxCell id="Tq3Fw4G3Y3T93em3ZsLp-16" value="+ update(int index, Customer customer): void" style="text;strokeColor=none;fillColor=none;align=left;verticalAlign=top;spacingLeft=4;spacingRight=4;overflow=hidden;rotatable=0;points=[[0,0.5],[1,0.5]];portConstraint=eastwest;whiteSpace=wrap;html=1;" parent="Tq3Fw4G3Y3T93em3ZsLp-12" vertex="1">
          <mxGeometry y="112" width="260" height="26" as="geometry" />
        </mxCell>
        <mxCell id="Tq3Fw4G3Y3T93em3ZsLp-17" value="+ delete(int index): void" style="text;strokeColor=none;fillColor=none;align=left;verticalAlign=top;spacingLeft=4;spacingRight=4;overflow=hidden;rotatable=0;points=[[0,0.5],[1,0.5]];portConstraint=eastwest;whiteSpace=wrap;html=1;" parent="Tq3Fw4G3Y3T93em3ZsLp-12" vertex="1">
          <mxGeometry y="138" width="260" height="26" as="geometry" />
        </mxCell>
        <mxCell id="sQRguFXHWhui87lNsLEo-50" style="edgeStyle=orthogonalEdgeStyle;rounded=0;orthogonalLoop=1;jettySize=auto;html=1;endArrow=openThin;endFill=0;" edge="1" parent="1" source="Tq3Fw4G3Y3T93em3ZsLp-40" target="Tq3Fw4G3Y3T93em3ZsLp-12">
          <mxGeometry relative="1" as="geometry" />
        </mxCell>
        <mxCell id="sQRguFXHWhui87lNsLEo-51" style="edgeStyle=orthogonalEdgeStyle;rounded=0;orthogonalLoop=1;jettySize=auto;html=1;entryX=0.75;entryY=0;entryDx=0;entryDy=0;endArrow=openThin;endFill=0;" edge="1" parent="1" source="Tq3Fw4G3Y3T93em3ZsLp-40" target="Hm3ft61ACo4Vs4W9NV3u-21">
          <mxGeometry relative="1" as="geometry" />
        </mxCell>
        <mxCell id="Tq3Fw4G3Y3T93em3ZsLp-40" value="Controller&lt;span style=&quot;text-align: left;&quot;&gt;&amp;lt;ModelType&amp;gt;&lt;/span&gt;" style="swimlane;fontStyle=1;align=center;verticalAlign=top;childLayout=stackLayout;horizontal=1;startSize=26;horizontalStack=0;resizeParent=1;resizeParentMax=0;resizeLast=0;collapsible=1;marginBottom=0;whiteSpace=wrap;html=1;" parent="1" vertex="1">
          <mxGeometry x="479" y="-714" width="270" height="268" as="geometry" />
        </mxCell>
        <mxCell id="Tq3Fw4G3Y3T93em3ZsLp-44" value="- repository: Repository" style="text;strokeColor=none;fillColor=none;align=left;verticalAlign=top;spacingLeft=4;spacingRight=4;overflow=hidden;rotatable=0;points=[[0,0.5],[1,0.5]];portConstraint=eastwest;whiteSpace=wrap;html=1;" parent="Tq3Fw4G3Y3T93em3ZsLp-40" vertex="1">
          <mxGeometry y="26" width="270" height="26" as="geometry" />
        </mxCell>
        <mxCell id="Tq3Fw4G3Y3T93em3ZsLp-41" value="- elementList: ArrayList&amp;lt;ModelType&amp;gt;" style="text;strokeColor=none;fillColor=none;align=left;verticalAlign=top;spacingLeft=4;spacingRight=4;overflow=hidden;rotatable=0;points=[[0,0.5],[1,0.5]];portConstraint=eastwest;whiteSpace=wrap;html=1;" parent="Tq3Fw4G3Y3T93em3ZsLp-40" vertex="1">
          <mxGeometry y="52" width="270" height="26" as="geometry" />
        </mxCell>
        <mxCell id="Tq3Fw4G3Y3T93em3ZsLp-42" value="" style="line;strokeWidth=1;fillColor=none;align=left;verticalAlign=middle;spacingTop=-1;spacingLeft=3;spacingRight=3;rotatable=0;labelPosition=right;points=[];portConstraint=eastwest;strokeColor=inherit;" parent="Tq3Fw4G3Y3T93em3ZsLp-40" vertex="1">
          <mxGeometry y="78" width="270" height="8" as="geometry" />
        </mxCell>
        <mxCell id="Tq3Fw4G3Y3T93em3ZsLp-76" value="+ constructor()" style="text;strokeColor=none;fillColor=none;align=left;verticalAlign=top;spacingLeft=4;spacingRight=4;overflow=hidden;rotatable=0;points=[[0,0.5],[1,0.5]];portConstraint=eastwest;whiteSpace=wrap;html=1;" parent="Tq3Fw4G3Y3T93em3ZsLp-40" vertex="1">
          <mxGeometry y="86" width="270" height="26" as="geometry" />
        </mxCell>
        <mxCell id="Tq3Fw4G3Y3T93em3ZsLp-45" value="+ getElement(): ArrayList&amp;lt;ModelType&amp;gt;" style="text;strokeColor=none;fillColor=none;align=left;verticalAlign=top;spacingLeft=4;spacingRight=4;overflow=hidden;rotatable=0;points=[[0,0.5],[1,0.5]];portConstraint=eastwest;whiteSpace=wrap;html=1;" parent="Tq3Fw4G3Y3T93em3ZsLp-40" vertex="1">
          <mxGeometry y="112" width="270" height="26" as="geometry" />
        </mxCell>
        <mxCell id="Tq3Fw4G3Y3T93em3ZsLp-43" value="+ getElement(int index): TypeModel" style="text;strokeColor=none;fillColor=none;align=left;verticalAlign=top;spacingLeft=4;spacingRight=4;overflow=hidden;rotatable=0;points=[[0,0.5],[1,0.5]];portConstraint=eastwest;whiteSpace=wrap;html=1;" parent="Tq3Fw4G3Y3T93em3ZsLp-40" vertex="1">
          <mxGeometry y="138" width="270" height="26" as="geometry" />
        </mxCell>
        <mxCell id="Tq3Fw4G3Y3T93em3ZsLp-46" value="+ setElement(TypeModel element): void" style="text;strokeColor=none;fillColor=none;align=left;verticalAlign=top;spacingLeft=4;spacingRight=4;overflow=hidden;rotatable=0;points=[[0,0.5],[1,0.5]];portConstraint=eastwest;whiteSpace=wrap;html=1;" parent="Tq3Fw4G3Y3T93em3ZsLp-40" vertex="1">
          <mxGeometry y="164" width="270" height="26" as="geometry" />
        </mxCell>
        <mxCell id="Tq3Fw4G3Y3T93em3ZsLp-47" value="+ setElement(int id, ModelType element): void" style="text;strokeColor=none;fillColor=none;align=left;verticalAlign=top;spacingLeft=4;spacingRight=4;overflow=hidden;rotatable=0;points=[[0,0.5],[1,0.5]];portConstraint=eastwest;whiteSpace=wrap;html=1;" parent="Tq3Fw4G3Y3T93em3ZsLp-40" vertex="1">
          <mxGeometry y="190" width="270" height="26" as="geometry" />
        </mxCell>
        <mxCell id="Tq3Fw4G3Y3T93em3ZsLp-48" value="+ deleteElement(int index): void" style="text;strokeColor=none;fillColor=none;align=left;verticalAlign=top;spacingLeft=4;spacingRight=4;overflow=hidden;rotatable=0;points=[[0,0.5],[1,0.5]];portConstraint=eastwest;whiteSpace=wrap;html=1;" parent="Tq3Fw4G3Y3T93em3ZsLp-40" vertex="1">
          <mxGeometry y="216" width="270" height="26" as="geometry" />
        </mxCell>
        <mxCell id="Tq3Fw4G3Y3T93em3ZsLp-49" value="+ deleteElement(TypeModel element): void" style="text;strokeColor=none;fillColor=none;align=left;verticalAlign=top;spacingLeft=4;spacingRight=4;overflow=hidden;rotatable=0;points=[[0,0.5],[1,0.5]];portConstraint=eastwest;whiteSpace=wrap;html=1;" parent="Tq3Fw4G3Y3T93em3ZsLp-40" vertex="1">
          <mxGeometry y="242" width="270" height="26" as="geometry" />
        </mxCell>
        <mxCell id="Tq3Fw4G3Y3T93em3ZsLp-50" style="edgeStyle=orthogonalEdgeStyle;rounded=0;orthogonalLoop=1;jettySize=auto;html=1;entryX=1.004;entryY=0.055;entryDx=0;entryDy=0;entryPerimeter=0;endArrow=none;endFill=0;startArrow=open;startFill=0;" parent="1" source="Hm3ft61ACo4Vs4W9NV3u-1" target="Hm3ft61ACo4Vs4W9NV3u-47" edge="1">
          <mxGeometry relative="1" as="geometry" />
        </mxCell>
        <mxCell id="sQRguFXHWhui87lNsLEo-156" style="edgeStyle=orthogonalEdgeStyle;rounded=0;orthogonalLoop=1;jettySize=auto;html=1;entryX=0.5;entryY=0;entryDx=0;entryDy=0;endArrow=openThin;endFill=0;" edge="1" parent="1" source="Tq3Fw4G3Y3T93em3ZsLp-56" target="sQRguFXHWhui87lNsLEo-54">
          <mxGeometry relative="1" as="geometry" />
        </mxCell>
        <mxCell id="sQRguFXHWhui87lNsLEo-158" style="edgeStyle=orthogonalEdgeStyle;rounded=0;orthogonalLoop=1;jettySize=auto;html=1;endArrow=openThin;endFill=0;entryX=0;entryY=0.5;entryDx=0;entryDy=0;" edge="1" parent="1" source="Tq3Fw4G3Y3T93em3ZsLp-56" target="sQRguFXHWhui87lNsLEo-3">
          <mxGeometry relative="1" as="geometry">
            <mxPoint x="150" y="-930" as="targetPoint" />
            <Array as="points">
              <mxPoint x="-250" y="-1904" />
              <mxPoint x="-250" y="-938" />
              <mxPoint x="120" y="-938" />
              <mxPoint x="120" y="-928" />
            </Array>
          </mxGeometry>
        </mxCell>
        <mxCell id="Tq3Fw4G3Y3T93em3ZsLp-56" value="Program" style="swimlane;fontStyle=0;childLayout=stackLayout;horizontal=1;startSize=26;fillColor=none;horizontalStack=0;resizeParent=1;resizeParentMax=0;resizeLast=0;collapsible=1;marginBottom=0;whiteSpace=wrap;html=1;" parent="1" vertex="1">
          <mxGeometry x="160" y="-1930" width="140" height="52" as="geometry" />
        </mxCell>
        <mxCell id="Tq3Fw4G3Y3T93em3ZsLp-61" value="+ main(): void" style="text;strokeColor=none;fillColor=none;align=left;verticalAlign=top;spacingLeft=4;spacingRight=4;overflow=hidden;rotatable=0;points=[[0,0.5],[1,0.5]];portConstraint=eastwest;whiteSpace=wrap;html=1;" parent="Tq3Fw4G3Y3T93em3ZsLp-56" vertex="1">
          <mxGeometry y="26" width="140" height="26" as="geometry" />
        </mxCell>
        <mxCell id="Tq3Fw4G3Y3T93em3ZsLp-88" value="OrderRepository" style="swimlane;fontStyle=1;align=center;verticalAlign=top;childLayout=stackLayout;horizontal=1;startSize=26;horizontalStack=0;resizeParent=1;resizeParentMax=0;resizeLast=0;collapsible=1;marginBottom=0;whiteSpace=wrap;html=1;" parent="1" vertex="1">
          <mxGeometry x="20" y="-370" width="230" height="164" as="geometry" />
        </mxCell>
        <mxCell id="Tq3Fw4G3Y3T93em3ZsLp-90" value="" style="line;strokeWidth=1;fillColor=none;align=left;verticalAlign=middle;spacingTop=-1;spacingLeft=3;spacingRight=3;rotatable=0;labelPosition=right;points=[];portConstraint=eastwest;strokeColor=inherit;" parent="Tq3Fw4G3Y3T93em3ZsLp-88" vertex="1">
          <mxGeometry y="26" width="230" height="8" as="geometry" />
        </mxCell>
        <mxCell id="Tq3Fw4G3Y3T93em3ZsLp-91" value="+ constructor" style="text;strokeColor=none;fillColor=none;align=left;verticalAlign=top;spacingLeft=4;spacingRight=4;overflow=hidden;rotatable=0;points=[[0,0.5],[1,0.5]];portConstraint=eastwest;whiteSpace=wrap;html=1;" parent="Tq3Fw4G3Y3T93em3ZsLp-88" vertex="1">
          <mxGeometry y="34" width="230" height="26" as="geometry" />
        </mxCell>
        <mxCell id="Tq3Fw4G3Y3T93em3ZsLp-92" value="+ add(Order order): void" style="text;strokeColor=none;fillColor=none;align=left;verticalAlign=top;spacingLeft=4;spacingRight=4;overflow=hidden;rotatable=0;points=[[0,0.5],[1,0.5]];portConstraint=eastwest;whiteSpace=wrap;html=1;" parent="Tq3Fw4G3Y3T93em3ZsLp-88" vertex="1">
          <mxGeometry y="60" width="230" height="26" as="geometry" />
        </mxCell>
        <mxCell id="Tq3Fw4G3Y3T93em3ZsLp-93" value="+ load(): ArrayList&amp;lt;Order&amp;gt;" style="text;strokeColor=none;fillColor=none;align=left;verticalAlign=top;spacingLeft=4;spacingRight=4;overflow=hidden;rotatable=0;points=[[0,0.5],[1,0.5]];portConstraint=eastwest;whiteSpace=wrap;html=1;" parent="Tq3Fw4G3Y3T93em3ZsLp-88" vertex="1">
          <mxGeometry y="86" width="230" height="26" as="geometry" />
        </mxCell>
        <mxCell id="Tq3Fw4G3Y3T93em3ZsLp-94" value="+ update(int index, Order order): void" style="text;strokeColor=none;fillColor=none;align=left;verticalAlign=top;spacingLeft=4;spacingRight=4;overflow=hidden;rotatable=0;points=[[0,0.5],[1,0.5]];portConstraint=eastwest;whiteSpace=wrap;html=1;" parent="Tq3Fw4G3Y3T93em3ZsLp-88" vertex="1">
          <mxGeometry y="112" width="230" height="26" as="geometry" />
        </mxCell>
        <mxCell id="Tq3Fw4G3Y3T93em3ZsLp-95" value="+ delete(int index): void" style="text;strokeColor=none;fillColor=none;align=left;verticalAlign=top;spacingLeft=4;spacingRight=4;overflow=hidden;rotatable=0;points=[[0,0.5],[1,0.5]];portConstraint=eastwest;whiteSpace=wrap;html=1;" parent="Tq3Fw4G3Y3T93em3ZsLp-88" vertex="1">
          <mxGeometry y="138" width="230" height="26" as="geometry" />
        </mxCell>
        <mxCell id="Tq3Fw4G3Y3T93em3ZsLp-97" value="SmartphoneRepository" style="swimlane;fontStyle=1;align=center;verticalAlign=top;childLayout=stackLayout;horizontal=1;startSize=26;horizontalStack=0;resizeParent=1;resizeParentMax=0;resizeLast=0;collapsible=1;marginBottom=0;whiteSpace=wrap;html=1;" parent="1" vertex="1">
          <mxGeometry x="-330" y="-370" width="280" height="164" as="geometry" />
        </mxCell>
        <mxCell id="Tq3Fw4G3Y3T93em3ZsLp-99" value="" style="line;strokeWidth=1;fillColor=none;align=left;verticalAlign=middle;spacingTop=-1;spacingLeft=3;spacingRight=3;rotatable=0;labelPosition=right;points=[];portConstraint=eastwest;strokeColor=inherit;" parent="Tq3Fw4G3Y3T93em3ZsLp-97" vertex="1">
          <mxGeometry y="26" width="280" height="8" as="geometry" />
        </mxCell>
        <mxCell id="Tq3Fw4G3Y3T93em3ZsLp-100" value="+ constructor" style="text;strokeColor=none;fillColor=none;align=left;verticalAlign=top;spacingLeft=4;spacingRight=4;overflow=hidden;rotatable=0;points=[[0,0.5],[1,0.5]];portConstraint=eastwest;whiteSpace=wrap;html=1;" parent="Tq3Fw4G3Y3T93em3ZsLp-97" vertex="1">
          <mxGeometry y="34" width="280" height="26" as="geometry" />
        </mxCell>
        <mxCell id="Tq3Fw4G3Y3T93em3ZsLp-101" value="+ add(Smartphone smartphone): void" style="text;strokeColor=none;fillColor=none;align=left;verticalAlign=top;spacingLeft=4;spacingRight=4;overflow=hidden;rotatable=0;points=[[0,0.5],[1,0.5]];portConstraint=eastwest;whiteSpace=wrap;html=1;" parent="Tq3Fw4G3Y3T93em3ZsLp-97" vertex="1">
          <mxGeometry y="60" width="280" height="26" as="geometry" />
        </mxCell>
        <mxCell id="Tq3Fw4G3Y3T93em3ZsLp-102" value="+ load(): ArrayList&amp;lt;Smartphone&amp;gt;" style="text;strokeColor=none;fillColor=none;align=left;verticalAlign=top;spacingLeft=4;spacingRight=4;overflow=hidden;rotatable=0;points=[[0,0.5],[1,0.5]];portConstraint=eastwest;whiteSpace=wrap;html=1;" parent="Tq3Fw4G3Y3T93em3ZsLp-97" vertex="1">
          <mxGeometry y="86" width="280" height="26" as="geometry" />
        </mxCell>
        <mxCell id="Tq3Fw4G3Y3T93em3ZsLp-103" value="+ update(int index, Smartphone smartphone): void" style="text;strokeColor=none;fillColor=none;align=left;verticalAlign=top;spacingLeft=4;spacingRight=4;overflow=hidden;rotatable=0;points=[[0,0.5],[1,0.5]];portConstraint=eastwest;whiteSpace=wrap;html=1;" parent="Tq3Fw4G3Y3T93em3ZsLp-97" vertex="1">
          <mxGeometry y="112" width="280" height="26" as="geometry" />
        </mxCell>
        <mxCell id="Tq3Fw4G3Y3T93em3ZsLp-104" value="+ delete(int index): void" style="text;strokeColor=none;fillColor=none;align=left;verticalAlign=top;spacingLeft=4;spacingRight=4;overflow=hidden;rotatable=0;points=[[0,0.5],[1,0.5]];portConstraint=eastwest;whiteSpace=wrap;html=1;" parent="Tq3Fw4G3Y3T93em3ZsLp-97" vertex="1">
          <mxGeometry y="138" width="280" height="26" as="geometry" />
        </mxCell>
        <mxCell id="Lad4h3_rMvGk7V-CIFqu-20" style="rounded=0;orthogonalLoop=1;jettySize=auto;html=1;entryX=0;entryY=0.5;entryDx=0;entryDy=0;endArrow=none;endFill=0;startArrow=diamondThin;startFill=0;" parent="1" source="Lad4h3_rMvGk7V-CIFqu-13" target="Hm3ft61ACo4Vs4W9NV3u-17" edge="1">
          <mxGeometry relative="1" as="geometry" />
        </mxCell>
        <mxCell id="Lad4h3_rMvGk7V-CIFqu-13" value="OrderPosition" style="swimlane;fontStyle=1;align=center;verticalAlign=top;childLayout=stackLayout;horizontal=1;startSize=26;horizontalStack=0;resizeParent=1;resizeParentMax=0;resizeLast=0;collapsible=1;marginBottom=0;whiteSpace=wrap;html=1;" parent="1" vertex="1">
          <mxGeometry x="50" y="90" width="137.5" height="222" as="geometry" />
        </mxCell>
        <mxCell id="Lad4h3_rMvGk7V-CIFqu-14" value="- orderedSmartphone: Smarphone" style="text;strokeColor=none;fillColor=none;align=left;verticalAlign=top;spacingLeft=4;spacingRight=4;overflow=hidden;rotatable=0;points=[[0,0.5],[1,0.5]];portConstraint=eastwest;whiteSpace=wrap;html=1;" parent="Lad4h3_rMvGk7V-CIFqu-13" vertex="1">
          <mxGeometry y="26" width="137.5" height="44" as="geometry" />
        </mxCell>
        <mxCell id="Lad4h3_rMvGk7V-CIFqu-17" value="- orderedUnitPrice: double" style="text;strokeColor=none;fillColor=none;align=left;verticalAlign=top;spacingLeft=4;spacingRight=4;overflow=hidden;rotatable=0;points=[[0,0.5],[1,0.5]];portConstraint=eastwest;whiteSpace=wrap;html=1;" parent="Lad4h3_rMvGk7V-CIFqu-13" vertex="1">
          <mxGeometry y="70" width="137.5" height="40" as="geometry" />
        </mxCell>
        <mxCell id="Lad4h3_rMvGk7V-CIFqu-18" value="- orderedQuantity: int" style="text;strokeColor=none;fillColor=none;align=left;verticalAlign=top;spacingLeft=4;spacingRight=4;overflow=hidden;rotatable=0;points=[[0,0.5],[1,0.5]];portConstraint=eastwest;whiteSpace=wrap;html=1;" parent="Lad4h3_rMvGk7V-CIFqu-13" vertex="1">
          <mxGeometry y="110" width="137.5" height="26" as="geometry" />
        </mxCell>
        <mxCell id="Lad4h3_rMvGk7V-CIFqu-15" value="" style="line;strokeWidth=1;fillColor=none;align=left;verticalAlign=middle;spacingTop=-1;spacingLeft=3;spacingRight=3;rotatable=0;labelPosition=right;points=[];portConstraint=eastwest;strokeColor=inherit;" parent="Lad4h3_rMvGk7V-CIFqu-13" vertex="1">
          <mxGeometry y="136" width="137.5" height="8" as="geometry" />
        </mxCell>
        <mxCell id="Lad4h3_rMvGk7V-CIFqu-16" value="+ constructor()" style="text;strokeColor=none;fillColor=none;align=left;verticalAlign=top;spacingLeft=4;spacingRight=4;overflow=hidden;rotatable=0;points=[[0,0.5],[1,0.5]];portConstraint=eastwest;whiteSpace=wrap;html=1;" parent="Lad4h3_rMvGk7V-CIFqu-13" vertex="1">
          <mxGeometry y="144" width="137.5" height="26" as="geometry" />
        </mxCell>
        <mxCell id="BB3HQISlAdByl-IEMui2-1" value="+ getter()" style="text;strokeColor=none;fillColor=none;align=left;verticalAlign=top;spacingLeft=4;spacingRight=4;overflow=hidden;rotatable=0;points=[[0,0.5],[1,0.5]];portConstraint=eastwest;whiteSpace=wrap;html=1;" parent="Lad4h3_rMvGk7V-CIFqu-13" vertex="1">
          <mxGeometry y="170" width="137.5" height="26" as="geometry" />
        </mxCell>
        <mxCell id="BB3HQISlAdByl-IEMui2-2" value="+ setter()" style="text;strokeColor=none;fillColor=none;align=left;verticalAlign=top;spacingLeft=4;spacingRight=4;overflow=hidden;rotatable=0;points=[[0,0.5],[1,0.5]];portConstraint=eastwest;whiteSpace=wrap;html=1;" parent="Lad4h3_rMvGk7V-CIFqu-13" vertex="1">
          <mxGeometry y="196" width="137.5" height="26" as="geometry" />
        </mxCell>
        <mxCell id="Lad4h3_rMvGk7V-CIFqu-19" style="rounded=0;orthogonalLoop=1;jettySize=auto;html=1;endArrow=diamondThin;endFill=1;exitX=1;exitY=0.5;exitDx=0;exitDy=0;entryX=0.006;entryY=0.933;entryDx=0;entryDy=0;entryPerimeter=0;" parent="1" source="Hm3ft61ACo4Vs4W9NV3u-7" target="Lad4h3_rMvGk7V-CIFqu-17" edge="1">
          <mxGeometry relative="1" as="geometry">
            <mxPoint x="81.66666666666674" y="237.91666666666697" as="targetPoint" />
          </mxGeometry>
        </mxCell>
        <mxCell id="BB3HQISlAdByl-IEMui2-10" value="AddressRepository" style="swimlane;fontStyle=1;align=center;verticalAlign=top;childLayout=stackLayout;horizontal=1;startSize=26;horizontalStack=0;resizeParent=1;resizeParentMax=0;resizeLast=0;collapsible=1;marginBottom=0;whiteSpace=wrap;html=1;" parent="1" vertex="1">
          <mxGeometry x="650" y="-370" width="240" height="164" as="geometry" />
        </mxCell>
        <mxCell id="BB3HQISlAdByl-IEMui2-11" value="" style="line;strokeWidth=1;fillColor=none;align=left;verticalAlign=middle;spacingTop=-1;spacingLeft=3;spacingRight=3;rotatable=0;labelPosition=right;points=[];portConstraint=eastwest;strokeColor=inherit;" parent="BB3HQISlAdByl-IEMui2-10" vertex="1">
          <mxGeometry y="26" width="240" height="8" as="geometry" />
        </mxCell>
        <mxCell id="BB3HQISlAdByl-IEMui2-12" value="+ constructor" style="text;strokeColor=none;fillColor=none;align=left;verticalAlign=top;spacingLeft=4;spacingRight=4;overflow=hidden;rotatable=0;points=[[0,0.5],[1,0.5]];portConstraint=eastwest;whiteSpace=wrap;html=1;" parent="BB3HQISlAdByl-IEMui2-10" vertex="1">
          <mxGeometry y="34" width="240" height="26" as="geometry" />
        </mxCell>
        <mxCell id="BB3HQISlAdByl-IEMui2-13" value="+ add(Address address): void" style="text;strokeColor=none;fillColor=none;align=left;verticalAlign=top;spacingLeft=4;spacingRight=4;overflow=hidden;rotatable=0;points=[[0,0.5],[1,0.5]];portConstraint=eastwest;whiteSpace=wrap;html=1;" parent="BB3HQISlAdByl-IEMui2-10" vertex="1">
          <mxGeometry y="60" width="240" height="26" as="geometry" />
        </mxCell>
        <mxCell id="BB3HQISlAdByl-IEMui2-14" value="+ load(): ArrayList&amp;lt;Address&amp;gt;" style="text;strokeColor=none;fillColor=none;align=left;verticalAlign=top;spacingLeft=4;spacingRight=4;overflow=hidden;rotatable=0;points=[[0,0.5],[1,0.5]];portConstraint=eastwest;whiteSpace=wrap;html=1;" parent="BB3HQISlAdByl-IEMui2-10" vertex="1">
          <mxGeometry y="86" width="240" height="26" as="geometry" />
        </mxCell>
        <mxCell id="BB3HQISlAdByl-IEMui2-15" value="+ update(int id, Address address): void" style="text;strokeColor=none;fillColor=none;align=left;verticalAlign=top;spacingLeft=4;spacingRight=4;overflow=hidden;rotatable=0;points=[[0,0.5],[1,0.5]];portConstraint=eastwest;whiteSpace=wrap;html=1;" parent="BB3HQISlAdByl-IEMui2-10" vertex="1">
          <mxGeometry y="112" width="240" height="26" as="geometry" />
        </mxCell>
        <mxCell id="BB3HQISlAdByl-IEMui2-16" value="+ delete(int index): void" style="text;strokeColor=none;fillColor=none;align=left;verticalAlign=top;spacingLeft=4;spacingRight=4;overflow=hidden;rotatable=0;points=[[0,0.5],[1,0.5]];portConstraint=eastwest;whiteSpace=wrap;html=1;" parent="BB3HQISlAdByl-IEMui2-10" vertex="1">
          <mxGeometry y="138" width="240" height="26" as="geometry" />
        </mxCell>
        <mxCell id="sQRguFXHWhui87lNsLEo-9" style="edgeStyle=orthogonalEdgeStyle;rounded=0;orthogonalLoop=1;jettySize=auto;html=1;entryX=0.5;entryY=0;entryDx=0;entryDy=0;endArrow=openThin;endFill=0;" edge="1" parent="1" source="sQRguFXHWhui87lNsLEo-1" target="Tq3Fw4G3Y3T93em3ZsLp-40">
          <mxGeometry relative="1" as="geometry" />
        </mxCell>
        <mxCell id="sQRguFXHWhui87lNsLEo-43" style="edgeStyle=orthogonalEdgeStyle;rounded=0;orthogonalLoop=1;jettySize=auto;html=1;endArrow=openThin;endFill=0;" edge="1" parent="1" source="sQRguFXHWhui87lNsLEo-1" target="sQRguFXHWhui87lNsLEo-10">
          <mxGeometry relative="1" as="geometry" />
        </mxCell>
        <mxCell id="sQRguFXHWhui87lNsLEo-44" style="edgeStyle=orthogonalEdgeStyle;rounded=0;orthogonalLoop=1;jettySize=auto;html=1;endArrow=openThin;endFill=0;" edge="1" parent="1" source="sQRguFXHWhui87lNsLEo-1" target="sQRguFXHWhui87lNsLEo-21">
          <mxGeometry relative="1" as="geometry" />
        </mxCell>
        <mxCell id="sQRguFXHWhui87lNsLEo-45" style="edgeStyle=orthogonalEdgeStyle;rounded=0;orthogonalLoop=1;jettySize=auto;html=1;entryX=0.5;entryY=0;entryDx=0;entryDy=0;endArrow=openThin;endFill=0;" edge="1" parent="1" source="sQRguFXHWhui87lNsLEo-1" target="sQRguFXHWhui87lNsLEo-32">
          <mxGeometry relative="1" as="geometry" />
        </mxCell>
        <mxCell id="sQRguFXHWhui87lNsLEo-1" value="MainController" style="swimlane;fontStyle=0;childLayout=stackLayout;horizontal=1;startSize=26;fillColor=none;horizontalStack=0;resizeParent=1;resizeParentMax=0;resizeLast=0;collapsible=1;marginBottom=0;whiteSpace=wrap;html=1;" vertex="1" parent="1">
          <mxGeometry x="160" y="-1020" width="205" height="274" as="geometry" />
        </mxCell>
        <mxCell id="sQRguFXHWhui87lNsLEo-2" value="+ static customerController: Controller&amp;lt;Customer&amp;gt;" style="text;strokeColor=none;fillColor=none;align=left;verticalAlign=top;spacingLeft=4;spacingRight=4;overflow=hidden;rotatable=0;points=[[0,0.5],[1,0.5]];portConstraint=eastwest;whiteSpace=wrap;html=1;" vertex="1" parent="sQRguFXHWhui87lNsLEo-1">
          <mxGeometry y="26" width="205" height="44" as="geometry" />
        </mxCell>
        <mxCell id="sQRguFXHWhui87lNsLEo-3" value="+ static&amp;nbsp;orderController: Controller&amp;lt;Order&amp;gt;" style="text;strokeColor=none;fillColor=none;align=left;verticalAlign=top;spacingLeft=4;spacingRight=4;overflow=hidden;rotatable=0;points=[[0,0.5],[1,0.5]];portConstraint=eastwest;whiteSpace=wrap;html=1;" vertex="1" parent="sQRguFXHWhui87lNsLEo-1">
          <mxGeometry y="70" width="205" height="44" as="geometry" />
        </mxCell>
        <mxCell id="sQRguFXHWhui87lNsLEo-4" value="+ static&amp;nbsp;smartphoneController:&amp;nbsp;&lt;div&gt;Controller&amp;lt;Smartphone&amp;gt;&lt;/div&gt;" style="text;strokeColor=none;fillColor=none;align=left;verticalAlign=top;spacingLeft=4;spacingRight=4;overflow=hidden;rotatable=0;points=[[0,0.5],[1,0.5]];portConstraint=eastwest;whiteSpace=wrap;html=1;" vertex="1" parent="sQRguFXHWhui87lNsLEo-1">
          <mxGeometry y="114" width="205" height="36" as="geometry" />
        </mxCell>
        <mxCell id="sQRguFXHWhui87lNsLEo-121" value="+ static&amp;nbsp;orderPositionController: Controller&amp;lt;OrderPosition&amp;gt;" style="text;strokeColor=none;fillColor=none;align=left;verticalAlign=top;spacingLeft=4;spacingRight=4;overflow=hidden;rotatable=0;points=[[0,0.5],[1,0.5]];portConstraint=eastwest;whiteSpace=wrap;html=1;" vertex="1" parent="sQRguFXHWhui87lNsLEo-1">
          <mxGeometry y="150" width="205" height="44" as="geometry" />
        </mxCell>
        <mxCell id="sQRguFXHWhui87lNsLEo-6" value="" style="line;strokeWidth=1;fillColor=none;align=left;verticalAlign=middle;spacingTop=-1;spacingLeft=3;spacingRight=3;rotatable=0;labelPosition=right;points=[];portConstraint=eastwest;strokeColor=inherit;" vertex="1" parent="sQRguFXHWhui87lNsLEo-1">
          <mxGeometry y="194" width="205" height="8" as="geometry" />
        </mxCell>
        <mxCell id="sQRguFXHWhui87lNsLEo-7" value="+ constructor()" style="text;strokeColor=none;fillColor=none;align=left;verticalAlign=top;spacingLeft=4;spacingRight=4;overflow=hidden;rotatable=0;points=[[0,0.5],[1,0.5]];portConstraint=eastwest;whiteSpace=wrap;html=1;" vertex="1" parent="sQRguFXHWhui87lNsLEo-1">
          <mxGeometry y="202" width="205" height="24" as="geometry" />
        </mxCell>
        <mxCell id="sQRguFXHWhui87lNsLEo-8" value="-&amp;nbsp;setInstanceAll(): void" style="text;strokeColor=none;fillColor=none;align=left;verticalAlign=top;spacingLeft=4;spacingRight=4;overflow=hidden;rotatable=0;points=[[0,0.5],[1,0.5]];portConstraint=eastwest;whiteSpace=wrap;html=1;" vertex="1" parent="sQRguFXHWhui87lNsLEo-1">
          <mxGeometry y="226" width="205" height="24" as="geometry" />
        </mxCell>
        <mxCell id="sQRguFXHWhui87lNsLEo-157" value="- saveAll(): void" style="text;strokeColor=none;fillColor=none;align=left;verticalAlign=top;spacingLeft=4;spacingRight=4;overflow=hidden;rotatable=0;points=[[0,0.5],[1,0.5]];portConstraint=eastwest;whiteSpace=wrap;html=1;" vertex="1" parent="sQRguFXHWhui87lNsLEo-1">
          <mxGeometry y="250" width="205" height="24" as="geometry" />
        </mxCell>
        <mxCell id="sQRguFXHWhui87lNsLEo-52" style="edgeStyle=orthogonalEdgeStyle;rounded=0;orthogonalLoop=1;jettySize=auto;html=1;endArrow=openThin;endFill=0;" edge="1" parent="1" source="sQRguFXHWhui87lNsLEo-10" target="Hm3ft61ACo4Vs4W9NV3u-15">
          <mxGeometry relative="1" as="geometry" />
        </mxCell>
        <mxCell id="sQRguFXHWhui87lNsLEo-53" style="edgeStyle=orthogonalEdgeStyle;rounded=0;orthogonalLoop=1;jettySize=auto;html=1;endArrow=openThin;endFill=0;" edge="1" parent="1" source="sQRguFXHWhui87lNsLEo-10" target="Tq3Fw4G3Y3T93em3ZsLp-88">
          <mxGeometry relative="1" as="geometry" />
        </mxCell>
        <mxCell id="sQRguFXHWhui87lNsLEo-10" value="Controller&lt;span style=&quot;text-align: left;&quot;&gt;&amp;lt;ModelType&amp;gt;&lt;/span&gt;" style="swimlane;fontStyle=1;align=center;verticalAlign=top;childLayout=stackLayout;horizontal=1;startSize=26;horizontalStack=0;resizeParent=1;resizeParentMax=0;resizeLast=0;collapsible=1;marginBottom=0;whiteSpace=wrap;html=1;" vertex="1" parent="1">
          <mxGeometry x="160" y="-708" width="270" height="268" as="geometry" />
        </mxCell>
        <mxCell id="sQRguFXHWhui87lNsLEo-11" value="- repository: Repository" style="text;strokeColor=none;fillColor=none;align=left;verticalAlign=top;spacingLeft=4;spacingRight=4;overflow=hidden;rotatable=0;points=[[0,0.5],[1,0.5]];portConstraint=eastwest;whiteSpace=wrap;html=1;" vertex="1" parent="sQRguFXHWhui87lNsLEo-10">
          <mxGeometry y="26" width="270" height="26" as="geometry" />
        </mxCell>
        <mxCell id="sQRguFXHWhui87lNsLEo-12" value="- elementList: ArrayList&amp;lt;ModelType&amp;gt;" style="text;strokeColor=none;fillColor=none;align=left;verticalAlign=top;spacingLeft=4;spacingRight=4;overflow=hidden;rotatable=0;points=[[0,0.5],[1,0.5]];portConstraint=eastwest;whiteSpace=wrap;html=1;" vertex="1" parent="sQRguFXHWhui87lNsLEo-10">
          <mxGeometry y="52" width="270" height="26" as="geometry" />
        </mxCell>
        <mxCell id="sQRguFXHWhui87lNsLEo-13" value="" style="line;strokeWidth=1;fillColor=none;align=left;verticalAlign=middle;spacingTop=-1;spacingLeft=3;spacingRight=3;rotatable=0;labelPosition=right;points=[];portConstraint=eastwest;strokeColor=inherit;" vertex="1" parent="sQRguFXHWhui87lNsLEo-10">
          <mxGeometry y="78" width="270" height="8" as="geometry" />
        </mxCell>
        <mxCell id="sQRguFXHWhui87lNsLEo-14" value="+ constructor()" style="text;strokeColor=none;fillColor=none;align=left;verticalAlign=top;spacingLeft=4;spacingRight=4;overflow=hidden;rotatable=0;points=[[0,0.5],[1,0.5]];portConstraint=eastwest;whiteSpace=wrap;html=1;" vertex="1" parent="sQRguFXHWhui87lNsLEo-10">
          <mxGeometry y="86" width="270" height="26" as="geometry" />
        </mxCell>
        <mxCell id="sQRguFXHWhui87lNsLEo-15" value="+ getElement(): ArrayList&amp;lt;ModelType&amp;gt;" style="text;strokeColor=none;fillColor=none;align=left;verticalAlign=top;spacingLeft=4;spacingRight=4;overflow=hidden;rotatable=0;points=[[0,0.5],[1,0.5]];portConstraint=eastwest;whiteSpace=wrap;html=1;" vertex="1" parent="sQRguFXHWhui87lNsLEo-10">
          <mxGeometry y="112" width="270" height="26" as="geometry" />
        </mxCell>
        <mxCell id="sQRguFXHWhui87lNsLEo-16" value="+ getElement(int index): TypeModel" style="text;strokeColor=none;fillColor=none;align=left;verticalAlign=top;spacingLeft=4;spacingRight=4;overflow=hidden;rotatable=0;points=[[0,0.5],[1,0.5]];portConstraint=eastwest;whiteSpace=wrap;html=1;" vertex="1" parent="sQRguFXHWhui87lNsLEo-10">
          <mxGeometry y="138" width="270" height="26" as="geometry" />
        </mxCell>
        <mxCell id="sQRguFXHWhui87lNsLEo-17" value="+ setElement(TypeModel element): void" style="text;strokeColor=none;fillColor=none;align=left;verticalAlign=top;spacingLeft=4;spacingRight=4;overflow=hidden;rotatable=0;points=[[0,0.5],[1,0.5]];portConstraint=eastwest;whiteSpace=wrap;html=1;" vertex="1" parent="sQRguFXHWhui87lNsLEo-10">
          <mxGeometry y="164" width="270" height="26" as="geometry" />
        </mxCell>
        <mxCell id="sQRguFXHWhui87lNsLEo-18" value="+ setElement(int id, ModelType element): void" style="text;strokeColor=none;fillColor=none;align=left;verticalAlign=top;spacingLeft=4;spacingRight=4;overflow=hidden;rotatable=0;points=[[0,0.5],[1,0.5]];portConstraint=eastwest;whiteSpace=wrap;html=1;" vertex="1" parent="sQRguFXHWhui87lNsLEo-10">
          <mxGeometry y="190" width="270" height="26" as="geometry" />
        </mxCell>
        <mxCell id="sQRguFXHWhui87lNsLEo-19" value="+ deleteElement(int index): void" style="text;strokeColor=none;fillColor=none;align=left;verticalAlign=top;spacingLeft=4;spacingRight=4;overflow=hidden;rotatable=0;points=[[0,0.5],[1,0.5]];portConstraint=eastwest;whiteSpace=wrap;html=1;" vertex="1" parent="sQRguFXHWhui87lNsLEo-10">
          <mxGeometry y="216" width="270" height="26" as="geometry" />
        </mxCell>
        <mxCell id="sQRguFXHWhui87lNsLEo-20" value="+ deleteElement(TypeModel element): void" style="text;strokeColor=none;fillColor=none;align=left;verticalAlign=top;spacingLeft=4;spacingRight=4;overflow=hidden;rotatable=0;points=[[0,0.5],[1,0.5]];portConstraint=eastwest;whiteSpace=wrap;html=1;" vertex="1" parent="sQRguFXHWhui87lNsLEo-10">
          <mxGeometry y="242" width="270" height="26" as="geometry" />
        </mxCell>
        <mxCell id="sQRguFXHWhui87lNsLEo-46" style="edgeStyle=orthogonalEdgeStyle;rounded=0;orthogonalLoop=1;jettySize=auto;html=1;endArrow=openThin;endFill=0;" edge="1" parent="1" source="sQRguFXHWhui87lNsLEo-21" target="Tq3Fw4G3Y3T93em3ZsLp-97">
          <mxGeometry relative="1" as="geometry" />
        </mxCell>
        <mxCell id="sQRguFXHWhui87lNsLEo-21" value="Controller&lt;span style=&quot;text-align: left;&quot;&gt;&amp;lt;ModelType&amp;gt;&lt;/span&gt;" style="swimlane;fontStyle=1;align=center;verticalAlign=top;childLayout=stackLayout;horizontal=1;startSize=26;horizontalStack=0;resizeParent=1;resizeParentMax=0;resizeLast=0;collapsible=1;marginBottom=0;whiteSpace=wrap;html=1;" vertex="1" parent="1">
          <mxGeometry x="-150" y="-708" width="270" height="268" as="geometry" />
        </mxCell>
        <mxCell id="sQRguFXHWhui87lNsLEo-22" value="- repository: Repository" style="text;strokeColor=none;fillColor=none;align=left;verticalAlign=top;spacingLeft=4;spacingRight=4;overflow=hidden;rotatable=0;points=[[0,0.5],[1,0.5]];portConstraint=eastwest;whiteSpace=wrap;html=1;" vertex="1" parent="sQRguFXHWhui87lNsLEo-21">
          <mxGeometry y="26" width="270" height="26" as="geometry" />
        </mxCell>
        <mxCell id="sQRguFXHWhui87lNsLEo-23" value="- elementList: ArrayList&amp;lt;ModelType&amp;gt;" style="text;strokeColor=none;fillColor=none;align=left;verticalAlign=top;spacingLeft=4;spacingRight=4;overflow=hidden;rotatable=0;points=[[0,0.5],[1,0.5]];portConstraint=eastwest;whiteSpace=wrap;html=1;" vertex="1" parent="sQRguFXHWhui87lNsLEo-21">
          <mxGeometry y="52" width="270" height="26" as="geometry" />
        </mxCell>
        <mxCell id="sQRguFXHWhui87lNsLEo-24" value="" style="line;strokeWidth=1;fillColor=none;align=left;verticalAlign=middle;spacingTop=-1;spacingLeft=3;spacingRight=3;rotatable=0;labelPosition=right;points=[];portConstraint=eastwest;strokeColor=inherit;" vertex="1" parent="sQRguFXHWhui87lNsLEo-21">
          <mxGeometry y="78" width="270" height="8" as="geometry" />
        </mxCell>
        <mxCell id="sQRguFXHWhui87lNsLEo-25" value="+ constructor()" style="text;strokeColor=none;fillColor=none;align=left;verticalAlign=top;spacingLeft=4;spacingRight=4;overflow=hidden;rotatable=0;points=[[0,0.5],[1,0.5]];portConstraint=eastwest;whiteSpace=wrap;html=1;" vertex="1" parent="sQRguFXHWhui87lNsLEo-21">
          <mxGeometry y="86" width="270" height="26" as="geometry" />
        </mxCell>
        <mxCell id="sQRguFXHWhui87lNsLEo-26" value="+ getElement(): ArrayList&amp;lt;ModelType&amp;gt;" style="text;strokeColor=none;fillColor=none;align=left;verticalAlign=top;spacingLeft=4;spacingRight=4;overflow=hidden;rotatable=0;points=[[0,0.5],[1,0.5]];portConstraint=eastwest;whiteSpace=wrap;html=1;" vertex="1" parent="sQRguFXHWhui87lNsLEo-21">
          <mxGeometry y="112" width="270" height="26" as="geometry" />
        </mxCell>
        <mxCell id="sQRguFXHWhui87lNsLEo-27" value="+ getElement(int index): TypeModel" style="text;strokeColor=none;fillColor=none;align=left;verticalAlign=top;spacingLeft=4;spacingRight=4;overflow=hidden;rotatable=0;points=[[0,0.5],[1,0.5]];portConstraint=eastwest;whiteSpace=wrap;html=1;" vertex="1" parent="sQRguFXHWhui87lNsLEo-21">
          <mxGeometry y="138" width="270" height="26" as="geometry" />
        </mxCell>
        <mxCell id="sQRguFXHWhui87lNsLEo-28" value="+ setElement(TypeModel element): void" style="text;strokeColor=none;fillColor=none;align=left;verticalAlign=top;spacingLeft=4;spacingRight=4;overflow=hidden;rotatable=0;points=[[0,0.5],[1,0.5]];portConstraint=eastwest;whiteSpace=wrap;html=1;" vertex="1" parent="sQRguFXHWhui87lNsLEo-21">
          <mxGeometry y="164" width="270" height="26" as="geometry" />
        </mxCell>
        <mxCell id="sQRguFXHWhui87lNsLEo-29" value="+ setElement(int id, ModelType element): void" style="text;strokeColor=none;fillColor=none;align=left;verticalAlign=top;spacingLeft=4;spacingRight=4;overflow=hidden;rotatable=0;points=[[0,0.5],[1,0.5]];portConstraint=eastwest;whiteSpace=wrap;html=1;" vertex="1" parent="sQRguFXHWhui87lNsLEo-21">
          <mxGeometry y="190" width="270" height="26" as="geometry" />
        </mxCell>
        <mxCell id="sQRguFXHWhui87lNsLEo-30" value="+ deleteElement(int index): void" style="text;strokeColor=none;fillColor=none;align=left;verticalAlign=top;spacingLeft=4;spacingRight=4;overflow=hidden;rotatable=0;points=[[0,0.5],[1,0.5]];portConstraint=eastwest;whiteSpace=wrap;html=1;" vertex="1" parent="sQRguFXHWhui87lNsLEo-21">
          <mxGeometry y="216" width="270" height="26" as="geometry" />
        </mxCell>
        <mxCell id="sQRguFXHWhui87lNsLEo-31" value="+ deleteElement(TypeModel element): void" style="text;strokeColor=none;fillColor=none;align=left;verticalAlign=top;spacingLeft=4;spacingRight=4;overflow=hidden;rotatable=0;points=[[0,0.5],[1,0.5]];portConstraint=eastwest;whiteSpace=wrap;html=1;" vertex="1" parent="sQRguFXHWhui87lNsLEo-21">
          <mxGeometry y="242" width="270" height="26" as="geometry" />
        </mxCell>
        <mxCell id="sQRguFXHWhui87lNsLEo-48" style="edgeStyle=orthogonalEdgeStyle;rounded=0;orthogonalLoop=1;jettySize=auto;html=1;endArrow=openThin;endFill=0;" edge="1" parent="1" source="sQRguFXHWhui87lNsLEo-32" target="Tq3Fw4G3Y3T93em3ZsLp-1">
          <mxGeometry relative="1" as="geometry" />
        </mxCell>
        <mxCell id="sQRguFXHWhui87lNsLEo-49" style="edgeStyle=orthogonalEdgeStyle;rounded=0;orthogonalLoop=1;jettySize=auto;html=1;endArrow=openThin;endFill=0;" edge="1" parent="1" source="sQRguFXHWhui87lNsLEo-32" target="BB3HQISlAdByl-IEMui2-10">
          <mxGeometry relative="1" as="geometry" />
        </mxCell>
        <mxCell id="sQRguFXHWhui87lNsLEo-32" value="Controller&lt;span style=&quot;text-align: left;&quot;&gt;&amp;lt;ModelType&amp;gt;&lt;/span&gt;" style="swimlane;fontStyle=1;align=center;verticalAlign=top;childLayout=stackLayout;horizontal=1;startSize=26;horizontalStack=0;resizeParent=1;resizeParentMax=0;resizeLast=0;collapsible=1;marginBottom=0;whiteSpace=wrap;html=1;" vertex="1" parent="1">
          <mxGeometry x="810" y="-720" width="270" height="268" as="geometry" />
        </mxCell>
        <mxCell id="sQRguFXHWhui87lNsLEo-33" value="- repository: Repository" style="text;strokeColor=none;fillColor=none;align=left;verticalAlign=top;spacingLeft=4;spacingRight=4;overflow=hidden;rotatable=0;points=[[0,0.5],[1,0.5]];portConstraint=eastwest;whiteSpace=wrap;html=1;" vertex="1" parent="sQRguFXHWhui87lNsLEo-32">
          <mxGeometry y="26" width="270" height="26" as="geometry" />
        </mxCell>
        <mxCell id="sQRguFXHWhui87lNsLEo-34" value="- elementList: ArrayList&amp;lt;ModelType&amp;gt;" style="text;strokeColor=none;fillColor=none;align=left;verticalAlign=top;spacingLeft=4;spacingRight=4;overflow=hidden;rotatable=0;points=[[0,0.5],[1,0.5]];portConstraint=eastwest;whiteSpace=wrap;html=1;" vertex="1" parent="sQRguFXHWhui87lNsLEo-32">
          <mxGeometry y="52" width="270" height="26" as="geometry" />
        </mxCell>
        <mxCell id="sQRguFXHWhui87lNsLEo-35" value="" style="line;strokeWidth=1;fillColor=none;align=left;verticalAlign=middle;spacingTop=-1;spacingLeft=3;spacingRight=3;rotatable=0;labelPosition=right;points=[];portConstraint=eastwest;strokeColor=inherit;" vertex="1" parent="sQRguFXHWhui87lNsLEo-32">
          <mxGeometry y="78" width="270" height="8" as="geometry" />
        </mxCell>
        <mxCell id="sQRguFXHWhui87lNsLEo-36" value="+ constructor()" style="text;strokeColor=none;fillColor=none;align=left;verticalAlign=top;spacingLeft=4;spacingRight=4;overflow=hidden;rotatable=0;points=[[0,0.5],[1,0.5]];portConstraint=eastwest;whiteSpace=wrap;html=1;" vertex="1" parent="sQRguFXHWhui87lNsLEo-32">
          <mxGeometry y="86" width="270" height="26" as="geometry" />
        </mxCell>
        <mxCell id="sQRguFXHWhui87lNsLEo-37" value="+ getElement(): ArrayList&amp;lt;ModelType&amp;gt;" style="text;strokeColor=none;fillColor=none;align=left;verticalAlign=top;spacingLeft=4;spacingRight=4;overflow=hidden;rotatable=0;points=[[0,0.5],[1,0.5]];portConstraint=eastwest;whiteSpace=wrap;html=1;" vertex="1" parent="sQRguFXHWhui87lNsLEo-32">
          <mxGeometry y="112" width="270" height="26" as="geometry" />
        </mxCell>
        <mxCell id="sQRguFXHWhui87lNsLEo-38" value="+ getElement(int index): TypeModel" style="text;strokeColor=none;fillColor=none;align=left;verticalAlign=top;spacingLeft=4;spacingRight=4;overflow=hidden;rotatable=0;points=[[0,0.5],[1,0.5]];portConstraint=eastwest;whiteSpace=wrap;html=1;" vertex="1" parent="sQRguFXHWhui87lNsLEo-32">
          <mxGeometry y="138" width="270" height="26" as="geometry" />
        </mxCell>
        <mxCell id="sQRguFXHWhui87lNsLEo-39" value="+ setElement(TypeModel element): void" style="text;strokeColor=none;fillColor=none;align=left;verticalAlign=top;spacingLeft=4;spacingRight=4;overflow=hidden;rotatable=0;points=[[0,0.5],[1,0.5]];portConstraint=eastwest;whiteSpace=wrap;html=1;" vertex="1" parent="sQRguFXHWhui87lNsLEo-32">
          <mxGeometry y="164" width="270" height="26" as="geometry" />
        </mxCell>
        <mxCell id="sQRguFXHWhui87lNsLEo-40" value="+ setElement(int id, ModelType element): void" style="text;strokeColor=none;fillColor=none;align=left;verticalAlign=top;spacingLeft=4;spacingRight=4;overflow=hidden;rotatable=0;points=[[0,0.5],[1,0.5]];portConstraint=eastwest;whiteSpace=wrap;html=1;" vertex="1" parent="sQRguFXHWhui87lNsLEo-32">
          <mxGeometry y="190" width="270" height="26" as="geometry" />
        </mxCell>
        <mxCell id="sQRguFXHWhui87lNsLEo-41" value="+ deleteElement(int index): void" style="text;strokeColor=none;fillColor=none;align=left;verticalAlign=top;spacingLeft=4;spacingRight=4;overflow=hidden;rotatable=0;points=[[0,0.5],[1,0.5]];portConstraint=eastwest;whiteSpace=wrap;html=1;" vertex="1" parent="sQRguFXHWhui87lNsLEo-32">
          <mxGeometry y="216" width="270" height="26" as="geometry" />
        </mxCell>
        <mxCell id="sQRguFXHWhui87lNsLEo-42" value="+ deleteElement(TypeModel element): void" style="text;strokeColor=none;fillColor=none;align=left;verticalAlign=top;spacingLeft=4;spacingRight=4;overflow=hidden;rotatable=0;points=[[0,0.5],[1,0.5]];portConstraint=eastwest;whiteSpace=wrap;html=1;" vertex="1" parent="sQRguFXHWhui87lNsLEo-32">
          <mxGeometry y="242" width="270" height="26" as="geometry" />
        </mxCell>
        <mxCell id="sQRguFXHWhui87lNsLEo-47" style="edgeStyle=orthogonalEdgeStyle;rounded=0;orthogonalLoop=1;jettySize=auto;html=1;entryX=0.75;entryY=0;entryDx=0;entryDy=0;endArrow=openThin;endFill=0;" edge="1" parent="1" source="sQRguFXHWhui87lNsLEo-21" target="Hm3ft61ACo4Vs4W9NV3u-1">
          <mxGeometry relative="1" as="geometry" />
        </mxCell>
        <mxCell id="sQRguFXHWhui87lNsLEo-152" style="edgeStyle=orthogonalEdgeStyle;rounded=0;orthogonalLoop=1;jettySize=auto;html=1;entryX=0.75;entryY=0;entryDx=0;entryDy=0;endArrow=openThin;endFill=0;" edge="1" parent="1" source="sQRguFXHWhui87lNsLEo-54" target="sQRguFXHWhui87lNsLEo-64">
          <mxGeometry relative="1" as="geometry" />
        </mxCell>
        <mxCell id="sQRguFXHWhui87lNsLEo-153" style="edgeStyle=orthogonalEdgeStyle;rounded=0;orthogonalLoop=1;jettySize=auto;html=1;entryX=0.25;entryY=0;entryDx=0;entryDy=0;endArrow=openThin;endFill=0;" edge="1" parent="1" source="sQRguFXHWhui87lNsLEo-54" target="sQRguFXHWhui87lNsLEo-88">
          <mxGeometry relative="1" as="geometry">
            <Array as="points">
              <mxPoint x="180" y="-1473" />
              <mxPoint x="179" y="-1473" />
            </Array>
          </mxGeometry>
        </mxCell>
        <mxCell id="sQRguFXHWhui87lNsLEo-154" style="edgeStyle=orthogonalEdgeStyle;rounded=0;orthogonalLoop=1;jettySize=auto;html=1;entryX=0.25;entryY=0;entryDx=0;entryDy=0;endArrow=openThin;endFill=0;" edge="1" parent="1" source="sQRguFXHWhui87lNsLEo-54" target="sQRguFXHWhui87lNsLEo-99">
          <mxGeometry relative="1" as="geometry" />
        </mxCell>
        <mxCell id="sQRguFXHWhui87lNsLEo-155" style="edgeStyle=orthogonalEdgeStyle;rounded=0;orthogonalLoop=1;jettySize=auto;html=1;entryX=0.25;entryY=0;entryDx=0;entryDy=0;endArrow=openThin;endFill=0;" edge="1" parent="1" source="sQRguFXHWhui87lNsLEo-54" target="sQRguFXHWhui87lNsLEo-110">
          <mxGeometry relative="1" as="geometry" />
        </mxCell>
        <mxCell id="sQRguFXHWhui87lNsLEo-54" value="MainView" style="swimlane;fontStyle=0;childLayout=stackLayout;horizontal=1;startSize=26;fillColor=none;horizontalStack=0;resizeParent=1;resizeParentMax=0;resizeLast=0;collapsible=1;marginBottom=0;whiteSpace=wrap;html=1;" vertex="1" parent="1">
          <mxGeometry x="127.5" y="-1780" width="205" height="154" as="geometry" />
        </mxCell>
        <mxCell id="sQRguFXHWhui87lNsLEo-58" value="" style="line;strokeWidth=1;fillColor=none;align=left;verticalAlign=middle;spacingTop=-1;spacingLeft=3;spacingRight=3;rotatable=0;labelPosition=right;points=[];portConstraint=eastwest;strokeColor=inherit;" vertex="1" parent="sQRguFXHWhui87lNsLEo-54">
          <mxGeometry y="26" width="205" height="8" as="geometry" />
        </mxCell>
        <mxCell id="sQRguFXHWhui87lNsLEo-59" value="+ constructor()" style="text;strokeColor=none;fillColor=none;align=left;verticalAlign=top;spacingLeft=4;spacingRight=4;overflow=hidden;rotatable=0;points=[[0,0.5],[1,0.5]];portConstraint=eastwest;whiteSpace=wrap;html=1;" vertex="1" parent="sQRguFXHWhui87lNsLEo-54">
          <mxGeometry y="34" width="205" height="24" as="geometry" />
        </mxCell>
        <mxCell id="sQRguFXHWhui87lNsLEo-62" value="+&amp;nbsp;startViewLoop()" style="text;strokeColor=none;fillColor=none;align=left;verticalAlign=top;spacingLeft=4;spacingRight=4;overflow=hidden;rotatable=0;points=[[0,0.5],[1,0.5]];portConstraint=eastwest;whiteSpace=wrap;html=1;" vertex="1" parent="sQRguFXHWhui87lNsLEo-54">
          <mxGeometry y="58" width="205" height="24" as="geometry" />
        </mxCell>
        <mxCell id="sQRguFXHWhui87lNsLEo-60" value="- showMainMenu()" style="text;strokeColor=none;fillColor=none;align=left;verticalAlign=top;spacingLeft=4;spacingRight=4;overflow=hidden;rotatable=0;points=[[0,0.5],[1,0.5]];portConstraint=eastwest;whiteSpace=wrap;html=1;" vertex="1" parent="sQRguFXHWhui87lNsLEo-54">
          <mxGeometry y="82" width="205" height="24" as="geometry" />
        </mxCell>
        <mxCell id="sQRguFXHWhui87lNsLEo-61" value="- selectMainMenu()" style="text;strokeColor=none;fillColor=none;align=left;verticalAlign=top;spacingLeft=4;spacingRight=4;overflow=hidden;rotatable=0;points=[[0,0.5],[1,0.5]];portConstraint=eastwest;whiteSpace=wrap;html=1;" vertex="1" parent="sQRguFXHWhui87lNsLEo-54">
          <mxGeometry y="106" width="205" height="24" as="geometry" />
        </mxCell>
        <mxCell id="sQRguFXHWhui87lNsLEo-63" value="-&amp;nbsp;printWrongSelectionError()" style="text;strokeColor=none;fillColor=none;align=left;verticalAlign=top;spacingLeft=4;spacingRight=4;overflow=hidden;rotatable=0;points=[[0,0.5],[1,0.5]];portConstraint=eastwest;whiteSpace=wrap;html=1;" vertex="1" parent="sQRguFXHWhui87lNsLEo-54">
          <mxGeometry y="130" width="205" height="24" as="geometry" />
        </mxCell>
        <mxCell id="sQRguFXHWhui87lNsLEo-159" style="edgeStyle=orthogonalEdgeStyle;rounded=0;orthogonalLoop=1;jettySize=auto;html=1;entryX=0;entryY=0.5;entryDx=0;entryDy=0;endArrow=openThin;endFill=0;" edge="1" parent="1" source="sQRguFXHWhui87lNsLEo-64" target="sQRguFXHWhui87lNsLEo-2">
          <mxGeometry relative="1" as="geometry" />
        </mxCell>
        <mxCell id="sQRguFXHWhui87lNsLEo-64" value="CustomerView" style="swimlane;fontStyle=0;childLayout=stackLayout;horizontal=1;startSize=26;fillColor=none;horizontalStack=0;resizeParent=1;resizeParentMax=0;resizeLast=0;collapsible=1;marginBottom=0;whiteSpace=wrap;html=1;" vertex="1" parent="1">
          <mxGeometry x="-117.5" y="-1320" width="205" height="250" as="geometry" />
        </mxCell>
        <mxCell id="sQRguFXHWhui87lNsLEo-65" value="" style="line;strokeWidth=1;fillColor=none;align=left;verticalAlign=middle;spacingTop=-1;spacingLeft=3;spacingRight=3;rotatable=0;labelPosition=right;points=[];portConstraint=eastwest;strokeColor=inherit;" vertex="1" parent="sQRguFXHWhui87lNsLEo-64">
          <mxGeometry y="26" width="205" height="8" as="geometry" />
        </mxCell>
        <mxCell id="sQRguFXHWhui87lNsLEo-66" value="+ constructor()" style="text;strokeColor=none;fillColor=none;align=left;verticalAlign=top;spacingLeft=4;spacingRight=4;overflow=hidden;rotatable=0;points=[[0,0.5],[1,0.5]];portConstraint=eastwest;whiteSpace=wrap;html=1;" vertex="1" parent="sQRguFXHWhui87lNsLEo-64">
          <mxGeometry y="34" width="205" height="24" as="geometry" />
        </mxCell>
        <mxCell id="sQRguFXHWhui87lNsLEo-67" value="+&amp;nbsp;startViewLoop()" style="text;strokeColor=none;fillColor=none;align=left;verticalAlign=top;spacingLeft=4;spacingRight=4;overflow=hidden;rotatable=0;points=[[0,0.5],[1,0.5]];portConstraint=eastwest;whiteSpace=wrap;html=1;" vertex="1" parent="sQRguFXHWhui87lNsLEo-64">
          <mxGeometry y="58" width="205" height="24" as="geometry" />
        </mxCell>
        <mxCell id="sQRguFXHWhui87lNsLEo-68" value="+ showSubMain()" style="text;strokeColor=none;fillColor=none;align=left;verticalAlign=top;spacingLeft=4;spacingRight=4;overflow=hidden;rotatable=0;points=[[0,0.5],[1,0.5]];portConstraint=eastwest;whiteSpace=wrap;html=1;" vertex="1" parent="sQRguFXHWhui87lNsLEo-64">
          <mxGeometry y="82" width="205" height="24" as="geometry" />
        </mxCell>
        <mxCell id="sQRguFXHWhui87lNsLEo-69" value="+ selectSubMain()" style="text;strokeColor=none;fillColor=none;align=left;verticalAlign=top;spacingLeft=4;spacingRight=4;overflow=hidden;rotatable=0;points=[[0,0.5],[1,0.5]];portConstraint=eastwest;whiteSpace=wrap;html=1;" vertex="1" parent="sQRguFXHWhui87lNsLEo-64">
          <mxGeometry y="106" width="205" height="24" as="geometry" />
        </mxCell>
        <mxCell id="sQRguFXHWhui87lNsLEo-82" value="- showElementInput()" style="text;strokeColor=none;fillColor=none;align=left;verticalAlign=top;spacingLeft=4;spacingRight=4;overflow=hidden;rotatable=0;points=[[0,0.5],[1,0.5]];portConstraint=eastwest;whiteSpace=wrap;html=1;" vertex="1" parent="sQRguFXHWhui87lNsLEo-64">
          <mxGeometry y="130" width="205" height="24" as="geometry" />
        </mxCell>
        <mxCell id="sQRguFXHWhui87lNsLEo-83" value="- showElementIndex()" style="text;strokeColor=none;fillColor=none;align=left;verticalAlign=top;spacingLeft=4;spacingRight=4;overflow=hidden;rotatable=0;points=[[0,0.5],[1,0.5]];portConstraint=eastwest;whiteSpace=wrap;html=1;" vertex="1" parent="sQRguFXHWhui87lNsLEo-64">
          <mxGeometry y="154" width="205" height="24" as="geometry" />
        </mxCell>
        <mxCell id="sQRguFXHWhui87lNsLEo-84" value="-&amp;nbsp;showElement()" style="text;strokeColor=none;fillColor=none;align=left;verticalAlign=top;spacingLeft=4;spacingRight=4;overflow=hidden;rotatable=0;points=[[0,0.5],[1,0.5]];portConstraint=eastwest;whiteSpace=wrap;html=1;" vertex="1" parent="sQRguFXHWhui87lNsLEo-64">
          <mxGeometry y="178" width="205" height="24" as="geometry" />
        </mxCell>
        <mxCell id="sQRguFXHWhui87lNsLEo-85" value="-&amp;nbsp;updateElement()" style="text;strokeColor=none;fillColor=none;align=left;verticalAlign=top;spacingLeft=4;spacingRight=4;overflow=hidden;rotatable=0;points=[[0,0.5],[1,0.5]];portConstraint=eastwest;whiteSpace=wrap;html=1;" vertex="1" parent="sQRguFXHWhui87lNsLEo-64">
          <mxGeometry y="202" width="205" height="24" as="geometry" />
        </mxCell>
        <mxCell id="sQRguFXHWhui87lNsLEo-86" value="- deleteElement()" style="text;strokeColor=none;fillColor=none;align=left;verticalAlign=top;spacingLeft=4;spacingRight=4;overflow=hidden;rotatable=0;points=[[0,0.5],[1,0.5]];portConstraint=eastwest;whiteSpace=wrap;html=1;" vertex="1" parent="sQRguFXHWhui87lNsLEo-64">
          <mxGeometry y="226" width="205" height="24" as="geometry" />
        </mxCell>
        <mxCell id="sQRguFXHWhui87lNsLEo-87" style="edgeStyle=orthogonalEdgeStyle;rounded=0;orthogonalLoop=1;jettySize=auto;html=1;entryX=0.5;entryY=0;entryDx=0;entryDy=0;endArrow=openThin;endFill=0;" edge="1" parent="1" source="sQRguFXHWhui87lNsLEo-75" target="sQRguFXHWhui87lNsLEo-64">
          <mxGeometry relative="1" as="geometry" />
        </mxCell>
        <mxCell id="sQRguFXHWhui87lNsLEo-149" style="edgeStyle=orthogonalEdgeStyle;rounded=0;orthogonalLoop=1;jettySize=auto;html=1;entryX=0.5;entryY=0;entryDx=0;entryDy=0;endArrow=openThin;endFill=0;" edge="1" parent="1" source="sQRguFXHWhui87lNsLEo-75" target="sQRguFXHWhui87lNsLEo-88">
          <mxGeometry relative="1" as="geometry" />
        </mxCell>
        <mxCell id="sQRguFXHWhui87lNsLEo-150" style="edgeStyle=orthogonalEdgeStyle;rounded=0;orthogonalLoop=1;jettySize=auto;html=1;entryX=0.5;entryY=0;entryDx=0;entryDy=0;endArrow=openThin;endFill=0;" edge="1" parent="1" source="sQRguFXHWhui87lNsLEo-75" target="sQRguFXHWhui87lNsLEo-99">
          <mxGeometry relative="1" as="geometry" />
        </mxCell>
        <mxCell id="sQRguFXHWhui87lNsLEo-151" style="edgeStyle=orthogonalEdgeStyle;rounded=0;orthogonalLoop=1;jettySize=auto;html=1;endArrow=openThin;endFill=0;" edge="1" parent="1" source="sQRguFXHWhui87lNsLEo-75" target="sQRguFXHWhui87lNsLEo-110">
          <mxGeometry relative="1" as="geometry" />
        </mxCell>
        <mxCell id="sQRguFXHWhui87lNsLEo-75" value="«interface»&lt;br&gt;&lt;b&gt;SubMenu&lt;/b&gt;" style="swimlane;fontStyle=0;childLayout=stackLayout;horizontal=1;startSize=26;fillColor=none;horizontalStack=0;resizeParent=1;resizeParentMax=0;resizeLast=0;collapsible=1;marginBottom=0;whiteSpace=wrap;html=1;" vertex="1" parent="1">
          <mxGeometry x="-185" y="-1550" width="205" height="106" as="geometry" />
        </mxCell>
        <mxCell id="sQRguFXHWhui87lNsLEo-76" value="" style="line;strokeWidth=1;fillColor=none;align=left;verticalAlign=middle;spacingTop=-1;spacingLeft=3;spacingRight=3;rotatable=0;labelPosition=right;points=[];portConstraint=eastwest;strokeColor=inherit;" vertex="1" parent="sQRguFXHWhui87lNsLEo-75">
          <mxGeometry y="26" width="205" height="8" as="geometry" />
        </mxCell>
        <mxCell id="sQRguFXHWhui87lNsLEo-78" value="startViewLoop()" style="text;strokeColor=none;fillColor=none;align=left;verticalAlign=top;spacingLeft=4;spacingRight=4;overflow=hidden;rotatable=0;points=[[0,0.5],[1,0.5]];portConstraint=eastwest;whiteSpace=wrap;html=1;" vertex="1" parent="sQRguFXHWhui87lNsLEo-75">
          <mxGeometry y="34" width="205" height="24" as="geometry" />
        </mxCell>
        <mxCell id="sQRguFXHWhui87lNsLEo-79" value="showSubMain()" style="text;strokeColor=none;fillColor=none;align=left;verticalAlign=top;spacingLeft=4;spacingRight=4;overflow=hidden;rotatable=0;points=[[0,0.5],[1,0.5]];portConstraint=eastwest;whiteSpace=wrap;html=1;" vertex="1" parent="sQRguFXHWhui87lNsLEo-75">
          <mxGeometry y="58" width="205" height="24" as="geometry" />
        </mxCell>
        <mxCell id="sQRguFXHWhui87lNsLEo-80" value="selectSubMain()" style="text;strokeColor=none;fillColor=none;align=left;verticalAlign=top;spacingLeft=4;spacingRight=4;overflow=hidden;rotatable=0;points=[[0,0.5],[1,0.5]];portConstraint=eastwest;whiteSpace=wrap;html=1;" vertex="1" parent="sQRguFXHWhui87lNsLEo-75">
          <mxGeometry y="82" width="205" height="24" as="geometry" />
        </mxCell>
        <mxCell id="sQRguFXHWhui87lNsLEo-160" style="edgeStyle=orthogonalEdgeStyle;rounded=0;orthogonalLoop=1;jettySize=auto;html=1;entryX=0.25;entryY=0;entryDx=0;entryDy=0;endArrow=openThin;endFill=0;" edge="1" parent="1" source="sQRguFXHWhui87lNsLEo-88" target="sQRguFXHWhui87lNsLEo-1">
          <mxGeometry relative="1" as="geometry" />
        </mxCell>
        <mxCell id="sQRguFXHWhui87lNsLEo-88" value="CustomerView" style="swimlane;fontStyle=0;childLayout=stackLayout;horizontal=1;startSize=26;fillColor=none;horizontalStack=0;resizeParent=1;resizeParentMax=0;resizeLast=0;collapsible=1;marginBottom=0;whiteSpace=wrap;html=1;" vertex="1" parent="1">
          <mxGeometry x="127.5" y="-1320" width="205" height="250" as="geometry" />
        </mxCell>
        <mxCell id="sQRguFXHWhui87lNsLEo-89" value="" style="line;strokeWidth=1;fillColor=none;align=left;verticalAlign=middle;spacingTop=-1;spacingLeft=3;spacingRight=3;rotatable=0;labelPosition=right;points=[];portConstraint=eastwest;strokeColor=inherit;" vertex="1" parent="sQRguFXHWhui87lNsLEo-88">
          <mxGeometry y="26" width="205" height="8" as="geometry" />
        </mxCell>
        <mxCell id="sQRguFXHWhui87lNsLEo-90" value="+ constructor()" style="text;strokeColor=none;fillColor=none;align=left;verticalAlign=top;spacingLeft=4;spacingRight=4;overflow=hidden;rotatable=0;points=[[0,0.5],[1,0.5]];portConstraint=eastwest;whiteSpace=wrap;html=1;" vertex="1" parent="sQRguFXHWhui87lNsLEo-88">
          <mxGeometry y="34" width="205" height="24" as="geometry" />
        </mxCell>
        <mxCell id="sQRguFXHWhui87lNsLEo-91" value="+&amp;nbsp;startViewLoop()" style="text;strokeColor=none;fillColor=none;align=left;verticalAlign=top;spacingLeft=4;spacingRight=4;overflow=hidden;rotatable=0;points=[[0,0.5],[1,0.5]];portConstraint=eastwest;whiteSpace=wrap;html=1;" vertex="1" parent="sQRguFXHWhui87lNsLEo-88">
          <mxGeometry y="58" width="205" height="24" as="geometry" />
        </mxCell>
        <mxCell id="sQRguFXHWhui87lNsLEo-92" value="+ showSubMain()" style="text;strokeColor=none;fillColor=none;align=left;verticalAlign=top;spacingLeft=4;spacingRight=4;overflow=hidden;rotatable=0;points=[[0,0.5],[1,0.5]];portConstraint=eastwest;whiteSpace=wrap;html=1;" vertex="1" parent="sQRguFXHWhui87lNsLEo-88">
          <mxGeometry y="82" width="205" height="24" as="geometry" />
        </mxCell>
        <mxCell id="sQRguFXHWhui87lNsLEo-93" value="+ selectSubMain()" style="text;strokeColor=none;fillColor=none;align=left;verticalAlign=top;spacingLeft=4;spacingRight=4;overflow=hidden;rotatable=0;points=[[0,0.5],[1,0.5]];portConstraint=eastwest;whiteSpace=wrap;html=1;" vertex="1" parent="sQRguFXHWhui87lNsLEo-88">
          <mxGeometry y="106" width="205" height="24" as="geometry" />
        </mxCell>
        <mxCell id="sQRguFXHWhui87lNsLEo-94" value="- showElementInput()" style="text;strokeColor=none;fillColor=none;align=left;verticalAlign=top;spacingLeft=4;spacingRight=4;overflow=hidden;rotatable=0;points=[[0,0.5],[1,0.5]];portConstraint=eastwest;whiteSpace=wrap;html=1;" vertex="1" parent="sQRguFXHWhui87lNsLEo-88">
          <mxGeometry y="130" width="205" height="24" as="geometry" />
        </mxCell>
        <mxCell id="sQRguFXHWhui87lNsLEo-95" value="- showElementIndex()" style="text;strokeColor=none;fillColor=none;align=left;verticalAlign=top;spacingLeft=4;spacingRight=4;overflow=hidden;rotatable=0;points=[[0,0.5],[1,0.5]];portConstraint=eastwest;whiteSpace=wrap;html=1;" vertex="1" parent="sQRguFXHWhui87lNsLEo-88">
          <mxGeometry y="154" width="205" height="24" as="geometry" />
        </mxCell>
        <mxCell id="sQRguFXHWhui87lNsLEo-96" value="-&amp;nbsp;showElement()" style="text;strokeColor=none;fillColor=none;align=left;verticalAlign=top;spacingLeft=4;spacingRight=4;overflow=hidden;rotatable=0;points=[[0,0.5],[1,0.5]];portConstraint=eastwest;whiteSpace=wrap;html=1;" vertex="1" parent="sQRguFXHWhui87lNsLEo-88">
          <mxGeometry y="178" width="205" height="24" as="geometry" />
        </mxCell>
        <mxCell id="sQRguFXHWhui87lNsLEo-97" value="-&amp;nbsp;updateElement()" style="text;strokeColor=none;fillColor=none;align=left;verticalAlign=top;spacingLeft=4;spacingRight=4;overflow=hidden;rotatable=0;points=[[0,0.5],[1,0.5]];portConstraint=eastwest;whiteSpace=wrap;html=1;" vertex="1" parent="sQRguFXHWhui87lNsLEo-88">
          <mxGeometry y="202" width="205" height="24" as="geometry" />
        </mxCell>
        <mxCell id="sQRguFXHWhui87lNsLEo-98" value="- deleteElement()" style="text;strokeColor=none;fillColor=none;align=left;verticalAlign=top;spacingLeft=4;spacingRight=4;overflow=hidden;rotatable=0;points=[[0,0.5],[1,0.5]];portConstraint=eastwest;whiteSpace=wrap;html=1;" vertex="1" parent="sQRguFXHWhui87lNsLEo-88">
          <mxGeometry y="226" width="205" height="24" as="geometry" />
        </mxCell>
        <mxCell id="sQRguFXHWhui87lNsLEo-161" style="edgeStyle=orthogonalEdgeStyle;rounded=0;orthogonalLoop=1;jettySize=auto;html=1;entryX=1;entryY=0.5;entryDx=0;entryDy=0;endArrow=openThin;endFill=0;" edge="1" parent="1" source="sQRguFXHWhui87lNsLEo-99" target="sQRguFXHWhui87lNsLEo-2">
          <mxGeometry relative="1" as="geometry" />
        </mxCell>
        <mxCell id="sQRguFXHWhui87lNsLEo-99" value="CustomerView" style="swimlane;fontStyle=0;childLayout=stackLayout;horizontal=1;startSize=26;fillColor=none;horizontalStack=0;resizeParent=1;resizeParentMax=0;resizeLast=0;collapsible=1;marginBottom=0;whiteSpace=wrap;html=1;" vertex="1" parent="1">
          <mxGeometry x="397.5" y="-1320" width="205" height="250" as="geometry" />
        </mxCell>
        <mxCell id="sQRguFXHWhui87lNsLEo-100" value="" style="line;strokeWidth=1;fillColor=none;align=left;verticalAlign=middle;spacingTop=-1;spacingLeft=3;spacingRight=3;rotatable=0;labelPosition=right;points=[];portConstraint=eastwest;strokeColor=inherit;" vertex="1" parent="sQRguFXHWhui87lNsLEo-99">
          <mxGeometry y="26" width="205" height="8" as="geometry" />
        </mxCell>
        <mxCell id="sQRguFXHWhui87lNsLEo-101" value="+ constructor()" style="text;strokeColor=none;fillColor=none;align=left;verticalAlign=top;spacingLeft=4;spacingRight=4;overflow=hidden;rotatable=0;points=[[0,0.5],[1,0.5]];portConstraint=eastwest;whiteSpace=wrap;html=1;" vertex="1" parent="sQRguFXHWhui87lNsLEo-99">
          <mxGeometry y="34" width="205" height="24" as="geometry" />
        </mxCell>
        <mxCell id="sQRguFXHWhui87lNsLEo-102" value="+&amp;nbsp;startViewLoop()" style="text;strokeColor=none;fillColor=none;align=left;verticalAlign=top;spacingLeft=4;spacingRight=4;overflow=hidden;rotatable=0;points=[[0,0.5],[1,0.5]];portConstraint=eastwest;whiteSpace=wrap;html=1;" vertex="1" parent="sQRguFXHWhui87lNsLEo-99">
          <mxGeometry y="58" width="205" height="24" as="geometry" />
        </mxCell>
        <mxCell id="sQRguFXHWhui87lNsLEo-103" value="+ showSubMain()" style="text;strokeColor=none;fillColor=none;align=left;verticalAlign=top;spacingLeft=4;spacingRight=4;overflow=hidden;rotatable=0;points=[[0,0.5],[1,0.5]];portConstraint=eastwest;whiteSpace=wrap;html=1;" vertex="1" parent="sQRguFXHWhui87lNsLEo-99">
          <mxGeometry y="82" width="205" height="24" as="geometry" />
        </mxCell>
        <mxCell id="sQRguFXHWhui87lNsLEo-104" value="+ selectSubMain()" style="text;strokeColor=none;fillColor=none;align=left;verticalAlign=top;spacingLeft=4;spacingRight=4;overflow=hidden;rotatable=0;points=[[0,0.5],[1,0.5]];portConstraint=eastwest;whiteSpace=wrap;html=1;" vertex="1" parent="sQRguFXHWhui87lNsLEo-99">
          <mxGeometry y="106" width="205" height="24" as="geometry" />
        </mxCell>
        <mxCell id="sQRguFXHWhui87lNsLEo-105" value="- showElementInput()" style="text;strokeColor=none;fillColor=none;align=left;verticalAlign=top;spacingLeft=4;spacingRight=4;overflow=hidden;rotatable=0;points=[[0,0.5],[1,0.5]];portConstraint=eastwest;whiteSpace=wrap;html=1;" vertex="1" parent="sQRguFXHWhui87lNsLEo-99">
          <mxGeometry y="130" width="205" height="24" as="geometry" />
        </mxCell>
        <mxCell id="sQRguFXHWhui87lNsLEo-106" value="- showElementIndex()" style="text;strokeColor=none;fillColor=none;align=left;verticalAlign=top;spacingLeft=4;spacingRight=4;overflow=hidden;rotatable=0;points=[[0,0.5],[1,0.5]];portConstraint=eastwest;whiteSpace=wrap;html=1;" vertex="1" parent="sQRguFXHWhui87lNsLEo-99">
          <mxGeometry y="154" width="205" height="24" as="geometry" />
        </mxCell>
        <mxCell id="sQRguFXHWhui87lNsLEo-107" value="-&amp;nbsp;showElement()" style="text;strokeColor=none;fillColor=none;align=left;verticalAlign=top;spacingLeft=4;spacingRight=4;overflow=hidden;rotatable=0;points=[[0,0.5],[1,0.5]];portConstraint=eastwest;whiteSpace=wrap;html=1;" vertex="1" parent="sQRguFXHWhui87lNsLEo-99">
          <mxGeometry y="178" width="205" height="24" as="geometry" />
        </mxCell>
        <mxCell id="sQRguFXHWhui87lNsLEo-108" value="-&amp;nbsp;updateElement()" style="text;strokeColor=none;fillColor=none;align=left;verticalAlign=top;spacingLeft=4;spacingRight=4;overflow=hidden;rotatable=0;points=[[0,0.5],[1,0.5]];portConstraint=eastwest;whiteSpace=wrap;html=1;" vertex="1" parent="sQRguFXHWhui87lNsLEo-99">
          <mxGeometry y="202" width="205" height="24" as="geometry" />
        </mxCell>
        <mxCell id="sQRguFXHWhui87lNsLEo-109" value="- deleteElement()" style="text;strokeColor=none;fillColor=none;align=left;verticalAlign=top;spacingLeft=4;spacingRight=4;overflow=hidden;rotatable=0;points=[[0,0.5],[1,0.5]];portConstraint=eastwest;whiteSpace=wrap;html=1;" vertex="1" parent="sQRguFXHWhui87lNsLEo-99">
          <mxGeometry y="226" width="205" height="24" as="geometry" />
        </mxCell>
        <mxCell id="sQRguFXHWhui87lNsLEo-162" style="edgeStyle=orthogonalEdgeStyle;rounded=0;orthogonalLoop=1;jettySize=auto;html=1;entryX=1;entryY=0.5;entryDx=0;entryDy=0;endArrow=openThin;endFill=0;" edge="1" parent="1" source="sQRguFXHWhui87lNsLEo-110" target="sQRguFXHWhui87lNsLEo-3">
          <mxGeometry relative="1" as="geometry" />
        </mxCell>
        <mxCell id="sQRguFXHWhui87lNsLEo-110" value="CustomerView" style="swimlane;fontStyle=0;childLayout=stackLayout;horizontal=1;startSize=26;fillColor=none;horizontalStack=0;resizeParent=1;resizeParentMax=0;resizeLast=0;collapsible=1;marginBottom=0;whiteSpace=wrap;html=1;" vertex="1" parent="1">
          <mxGeometry x="670" y="-1320" width="205" height="250" as="geometry" />
        </mxCell>
        <mxCell id="sQRguFXHWhui87lNsLEo-111" value="" style="line;strokeWidth=1;fillColor=none;align=left;verticalAlign=middle;spacingTop=-1;spacingLeft=3;spacingRight=3;rotatable=0;labelPosition=right;points=[];portConstraint=eastwest;strokeColor=inherit;" vertex="1" parent="sQRguFXHWhui87lNsLEo-110">
          <mxGeometry y="26" width="205" height="8" as="geometry" />
        </mxCell>
        <mxCell id="sQRguFXHWhui87lNsLEo-112" value="+ constructor()" style="text;strokeColor=none;fillColor=none;align=left;verticalAlign=top;spacingLeft=4;spacingRight=4;overflow=hidden;rotatable=0;points=[[0,0.5],[1,0.5]];portConstraint=eastwest;whiteSpace=wrap;html=1;" vertex="1" parent="sQRguFXHWhui87lNsLEo-110">
          <mxGeometry y="34" width="205" height="24" as="geometry" />
        </mxCell>
        <mxCell id="sQRguFXHWhui87lNsLEo-113" value="+&amp;nbsp;startViewLoop()" style="text;strokeColor=none;fillColor=none;align=left;verticalAlign=top;spacingLeft=4;spacingRight=4;overflow=hidden;rotatable=0;points=[[0,0.5],[1,0.5]];portConstraint=eastwest;whiteSpace=wrap;html=1;" vertex="1" parent="sQRguFXHWhui87lNsLEo-110">
          <mxGeometry y="58" width="205" height="24" as="geometry" />
        </mxCell>
        <mxCell id="sQRguFXHWhui87lNsLEo-114" value="+ showSubMain()" style="text;strokeColor=none;fillColor=none;align=left;verticalAlign=top;spacingLeft=4;spacingRight=4;overflow=hidden;rotatable=0;points=[[0,0.5],[1,0.5]];portConstraint=eastwest;whiteSpace=wrap;html=1;" vertex="1" parent="sQRguFXHWhui87lNsLEo-110">
          <mxGeometry y="82" width="205" height="24" as="geometry" />
        </mxCell>
        <mxCell id="sQRguFXHWhui87lNsLEo-115" value="+ selectSubMain()" style="text;strokeColor=none;fillColor=none;align=left;verticalAlign=top;spacingLeft=4;spacingRight=4;overflow=hidden;rotatable=0;points=[[0,0.5],[1,0.5]];portConstraint=eastwest;whiteSpace=wrap;html=1;" vertex="1" parent="sQRguFXHWhui87lNsLEo-110">
          <mxGeometry y="106" width="205" height="24" as="geometry" />
        </mxCell>
        <mxCell id="sQRguFXHWhui87lNsLEo-116" value="- showElementInput()" style="text;strokeColor=none;fillColor=none;align=left;verticalAlign=top;spacingLeft=4;spacingRight=4;overflow=hidden;rotatable=0;points=[[0,0.5],[1,0.5]];portConstraint=eastwest;whiteSpace=wrap;html=1;" vertex="1" parent="sQRguFXHWhui87lNsLEo-110">
          <mxGeometry y="130" width="205" height="24" as="geometry" />
        </mxCell>
        <mxCell id="sQRguFXHWhui87lNsLEo-117" value="- showElementIndex()" style="text;strokeColor=none;fillColor=none;align=left;verticalAlign=top;spacingLeft=4;spacingRight=4;overflow=hidden;rotatable=0;points=[[0,0.5],[1,0.5]];portConstraint=eastwest;whiteSpace=wrap;html=1;" vertex="1" parent="sQRguFXHWhui87lNsLEo-110">
          <mxGeometry y="154" width="205" height="24" as="geometry" />
        </mxCell>
        <mxCell id="sQRguFXHWhui87lNsLEo-118" value="-&amp;nbsp;showElement()" style="text;strokeColor=none;fillColor=none;align=left;verticalAlign=top;spacingLeft=4;spacingRight=4;overflow=hidden;rotatable=0;points=[[0,0.5],[1,0.5]];portConstraint=eastwest;whiteSpace=wrap;html=1;" vertex="1" parent="sQRguFXHWhui87lNsLEo-110">
          <mxGeometry y="178" width="205" height="24" as="geometry" />
        </mxCell>
        <mxCell id="sQRguFXHWhui87lNsLEo-119" value="-&amp;nbsp;updateElement()" style="text;strokeColor=none;fillColor=none;align=left;verticalAlign=top;spacingLeft=4;spacingRight=4;overflow=hidden;rotatable=0;points=[[0,0.5],[1,0.5]];portConstraint=eastwest;whiteSpace=wrap;html=1;" vertex="1" parent="sQRguFXHWhui87lNsLEo-110">
          <mxGeometry y="202" width="205" height="24" as="geometry" />
        </mxCell>
        <mxCell id="sQRguFXHWhui87lNsLEo-120" value="- deleteElement()" style="text;strokeColor=none;fillColor=none;align=left;verticalAlign=top;spacingLeft=4;spacingRight=4;overflow=hidden;rotatable=0;points=[[0,0.5],[1,0.5]];portConstraint=eastwest;whiteSpace=wrap;html=1;" vertex="1" parent="sQRguFXHWhui87lNsLEo-110">
          <mxGeometry y="226" width="205" height="24" as="geometry" />
        </mxCell>
        <mxCell id="sQRguFXHWhui87lNsLEo-122" value="OrderPositionRepository" style="swimlane;fontStyle=1;align=center;verticalAlign=top;childLayout=stackLayout;horizontal=1;startSize=26;horizontalStack=0;resizeParent=1;resizeParentMax=0;resizeLast=0;collapsible=1;marginBottom=0;whiteSpace=wrap;html=1;" vertex="1" parent="1">
          <mxGeometry x="970" y="-400" width="290" height="164" as="geometry" />
        </mxCell>
        <mxCell id="sQRguFXHWhui87lNsLEo-123" value="" style="line;strokeWidth=1;fillColor=none;align=left;verticalAlign=middle;spacingTop=-1;spacingLeft=3;spacingRight=3;rotatable=0;labelPosition=right;points=[];portConstraint=eastwest;strokeColor=inherit;" vertex="1" parent="sQRguFXHWhui87lNsLEo-122">
          <mxGeometry y="26" width="290" height="8" as="geometry" />
        </mxCell>
        <mxCell id="sQRguFXHWhui87lNsLEo-124" value="+ constructor" style="text;strokeColor=none;fillColor=none;align=left;verticalAlign=top;spacingLeft=4;spacingRight=4;overflow=hidden;rotatable=0;points=[[0,0.5],[1,0.5]];portConstraint=eastwest;whiteSpace=wrap;html=1;" vertex="1" parent="sQRguFXHWhui87lNsLEo-122">
          <mxGeometry y="34" width="290" height="26" as="geometry" />
        </mxCell>
        <mxCell id="sQRguFXHWhui87lNsLEo-125" value="+ add(OrderPosition orderPosition): void" style="text;strokeColor=none;fillColor=none;align=left;verticalAlign=top;spacingLeft=4;spacingRight=4;overflow=hidden;rotatable=0;points=[[0,0.5],[1,0.5]];portConstraint=eastwest;whiteSpace=wrap;html=1;" vertex="1" parent="sQRguFXHWhui87lNsLEo-122">
          <mxGeometry y="60" width="290" height="26" as="geometry" />
        </mxCell>
        <mxCell id="sQRguFXHWhui87lNsLEo-126" value="+ load(): ArrayList&amp;lt;OrderPosition&amp;nbsp;&amp;gt;" style="text;strokeColor=none;fillColor=none;align=left;verticalAlign=top;spacingLeft=4;spacingRight=4;overflow=hidden;rotatable=0;points=[[0,0.5],[1,0.5]];portConstraint=eastwest;whiteSpace=wrap;html=1;" vertex="1" parent="sQRguFXHWhui87lNsLEo-122">
          <mxGeometry y="86" width="290" height="26" as="geometry" />
        </mxCell>
        <mxCell id="sQRguFXHWhui87lNsLEo-127" value="+ update(int index, OrderPosition orderPosition): void" style="text;strokeColor=none;fillColor=none;align=left;verticalAlign=top;spacingLeft=4;spacingRight=4;overflow=hidden;rotatable=0;points=[[0,0.5],[1,0.5]];portConstraint=eastwest;whiteSpace=wrap;html=1;" vertex="1" parent="sQRguFXHWhui87lNsLEo-122">
          <mxGeometry y="112" width="290" height="26" as="geometry" />
        </mxCell>
        <mxCell id="sQRguFXHWhui87lNsLEo-128" value="+ delete(int index): void" style="text;strokeColor=none;fillColor=none;align=left;verticalAlign=top;spacingLeft=4;spacingRight=4;overflow=hidden;rotatable=0;points=[[0,0.5],[1,0.5]];portConstraint=eastwest;whiteSpace=wrap;html=1;" vertex="1" parent="sQRguFXHWhui87lNsLEo-122">
          <mxGeometry y="138" width="290" height="26" as="geometry" />
        </mxCell>
        <mxCell id="sQRguFXHWhui87lNsLEo-140" style="edgeStyle=orthogonalEdgeStyle;rounded=0;orthogonalLoop=1;jettySize=auto;html=1;entryX=0.5;entryY=0;entryDx=0;entryDy=0;endArrow=openThin;endFill=0;" edge="1" parent="1" source="sQRguFXHWhui87lNsLEo-129" target="sQRguFXHWhui87lNsLEo-122">
          <mxGeometry relative="1" as="geometry" />
        </mxCell>
        <mxCell id="sQRguFXHWhui87lNsLEo-141" style="edgeStyle=orthogonalEdgeStyle;rounded=0;orthogonalLoop=1;jettySize=auto;html=1;endArrow=openThin;endFill=0;" edge="1" parent="1" source="sQRguFXHWhui87lNsLEo-129">
          <mxGeometry relative="1" as="geometry">
            <mxPoint x="119" y="310" as="targetPoint" />
            <Array as="points">
              <mxPoint x="1300" y="780" />
              <mxPoint x="119" y="780" />
            </Array>
          </mxGeometry>
        </mxCell>
        <mxCell id="sQRguFXHWhui87lNsLEo-129" value="Controller&lt;span style=&quot;text-align: left;&quot;&gt;&amp;lt;ModelType&amp;gt;&lt;/span&gt;" style="swimlane;fontStyle=1;align=center;verticalAlign=top;childLayout=stackLayout;horizontal=1;startSize=26;horizontalStack=0;resizeParent=1;resizeParentMax=0;resizeLast=0;collapsible=1;marginBottom=0;whiteSpace=wrap;html=1;" vertex="1" parent="1">
          <mxGeometry x="1130" y="-720" width="270" height="268" as="geometry" />
        </mxCell>
        <mxCell id="sQRguFXHWhui87lNsLEo-130" value="- repository: Repository" style="text;strokeColor=none;fillColor=none;align=left;verticalAlign=top;spacingLeft=4;spacingRight=4;overflow=hidden;rotatable=0;points=[[0,0.5],[1,0.5]];portConstraint=eastwest;whiteSpace=wrap;html=1;" vertex="1" parent="sQRguFXHWhui87lNsLEo-129">
          <mxGeometry y="26" width="270" height="26" as="geometry" />
        </mxCell>
        <mxCell id="sQRguFXHWhui87lNsLEo-131" value="- elementList: ArrayList&amp;lt;ModelType&amp;gt;" style="text;strokeColor=none;fillColor=none;align=left;verticalAlign=top;spacingLeft=4;spacingRight=4;overflow=hidden;rotatable=0;points=[[0,0.5],[1,0.5]];portConstraint=eastwest;whiteSpace=wrap;html=1;" vertex="1" parent="sQRguFXHWhui87lNsLEo-129">
          <mxGeometry y="52" width="270" height="26" as="geometry" />
        </mxCell>
        <mxCell id="sQRguFXHWhui87lNsLEo-132" value="" style="line;strokeWidth=1;fillColor=none;align=left;verticalAlign=middle;spacingTop=-1;spacingLeft=3;spacingRight=3;rotatable=0;labelPosition=right;points=[];portConstraint=eastwest;strokeColor=inherit;" vertex="1" parent="sQRguFXHWhui87lNsLEo-129">
          <mxGeometry y="78" width="270" height="8" as="geometry" />
        </mxCell>
        <mxCell id="sQRguFXHWhui87lNsLEo-133" value="+ constructor()" style="text;strokeColor=none;fillColor=none;align=left;verticalAlign=top;spacingLeft=4;spacingRight=4;overflow=hidden;rotatable=0;points=[[0,0.5],[1,0.5]];portConstraint=eastwest;whiteSpace=wrap;html=1;" vertex="1" parent="sQRguFXHWhui87lNsLEo-129">
          <mxGeometry y="86" width="270" height="26" as="geometry" />
        </mxCell>
        <mxCell id="sQRguFXHWhui87lNsLEo-134" value="+ getElement(): ArrayList&amp;lt;ModelType&amp;gt;" style="text;strokeColor=none;fillColor=none;align=left;verticalAlign=top;spacingLeft=4;spacingRight=4;overflow=hidden;rotatable=0;points=[[0,0.5],[1,0.5]];portConstraint=eastwest;whiteSpace=wrap;html=1;" vertex="1" parent="sQRguFXHWhui87lNsLEo-129">
          <mxGeometry y="112" width="270" height="26" as="geometry" />
        </mxCell>
        <mxCell id="sQRguFXHWhui87lNsLEo-135" value="+ getElement(int index): TypeModel" style="text;strokeColor=none;fillColor=none;align=left;verticalAlign=top;spacingLeft=4;spacingRight=4;overflow=hidden;rotatable=0;points=[[0,0.5],[1,0.5]];portConstraint=eastwest;whiteSpace=wrap;html=1;" vertex="1" parent="sQRguFXHWhui87lNsLEo-129">
          <mxGeometry y="138" width="270" height="26" as="geometry" />
        </mxCell>
        <mxCell id="sQRguFXHWhui87lNsLEo-136" value="+ setElement(TypeModel element): void" style="text;strokeColor=none;fillColor=none;align=left;verticalAlign=top;spacingLeft=4;spacingRight=4;overflow=hidden;rotatable=0;points=[[0,0.5],[1,0.5]];portConstraint=eastwest;whiteSpace=wrap;html=1;" vertex="1" parent="sQRguFXHWhui87lNsLEo-129">
          <mxGeometry y="164" width="270" height="26" as="geometry" />
        </mxCell>
        <mxCell id="sQRguFXHWhui87lNsLEo-137" value="+ setElement(int id, ModelType element): void" style="text;strokeColor=none;fillColor=none;align=left;verticalAlign=top;spacingLeft=4;spacingRight=4;overflow=hidden;rotatable=0;points=[[0,0.5],[1,0.5]];portConstraint=eastwest;whiteSpace=wrap;html=1;" vertex="1" parent="sQRguFXHWhui87lNsLEo-129">
          <mxGeometry y="190" width="270" height="26" as="geometry" />
        </mxCell>
        <mxCell id="sQRguFXHWhui87lNsLEo-138" value="+ deleteElement(int index): void" style="text;strokeColor=none;fillColor=none;align=left;verticalAlign=top;spacingLeft=4;spacingRight=4;overflow=hidden;rotatable=0;points=[[0,0.5],[1,0.5]];portConstraint=eastwest;whiteSpace=wrap;html=1;" vertex="1" parent="sQRguFXHWhui87lNsLEo-129">
          <mxGeometry y="216" width="270" height="26" as="geometry" />
        </mxCell>
        <mxCell id="sQRguFXHWhui87lNsLEo-139" value="+ deleteElement(TypeModel element): void" style="text;strokeColor=none;fillColor=none;align=left;verticalAlign=top;spacingLeft=4;spacingRight=4;overflow=hidden;rotatable=0;points=[[0,0.5],[1,0.5]];portConstraint=eastwest;whiteSpace=wrap;html=1;" vertex="1" parent="sQRguFXHWhui87lNsLEo-129">
          <mxGeometry y="242" width="270" height="26" as="geometry" />
        </mxCell>
      </root>
    </mxGraphModel>
  </diagram>
</mxfile>
